<svg xmlns="http://www.w3.org/2000/svg" id="svg2" width="793.701" height="1122.52"><g id="g5840" transform="matrix(1.34022 0 0 1.34022 -653.545 7.796)"><path id="path2195" d="M796.813 295.5c-.876.09-1.793.4-2.75.938-6.264 3.512-1.117 104.876-27.094 196.437-8.976-24.804-42.99-57.696-89.782-83.906-63.243-35.427-125.808-45.238-139.656-21.906-13.848 23.331 26.225 71.01 89.469 106.437 53.3 29.857 106.012 41.442 129.594 30.406-6.784 17.661-14.854 34.542-24.907 49.532-65.835 98.165-173.252 73.182-176.156 78.687-30.597 58.011 126.477 40.916 192.313-57.25 15.717-23.436 28.289-53.688 37.937-85.906.235.41.36.888.625 1.281 15.197 22.477 75.42 6.561 134.438-35.531 59.017-42.093 94.571-94.492 79.375-116.969-15.197-22.477-75.42-6.561-134.438 35.531-29.57 21.09-53.265 44.763-67.625 65.969 17.148-84.216 15.734-165.496-1.343-163.75z" style="fill:#35e23e;fill-opacity:1;fill-rule:nonzero;stroke:#12892d;stroke-width:17.004999;stroke-linecap:round;stroke-linejoin:round;stroke-miterlimit:4;stroke-dasharray:none;stroke-dashoffset:0;stroke-opacity:1"/><path transform="matrix(4.225 0 0 4.225 -1287.368 -859.238)" d="M521.872 275.233c-43.016-29.588 2.176-28.11-47.104-10.868-26.515 9.277 3.601 50.216 11.589 23.285 14.847-50.054 27.406-6.617-4.22-48.157-17.016-22.35-46.645 18.942-18.564 18.217 52.192-1.347 14.762 24.02 44.496-18.895 15.998-23.09-32.43-38.508-23.062-12.026 17.41 49.222-18.283 21.463 31.72 36.48 26.903 8.08 26.602-42.742 4.31-25.65-41.432 31.768-26.06-10.755-24.891 41.441.629 28.083 48.87 12.092 25.726-3.827z" id="path1549" style="fill:#fa9806;fill-opacity:1;fill-rule:nonzero;stroke:#f58006;stroke-width:4.0247698;stroke-linecap:butt;stroke-linejoin:round;stroke-miterlimit:4;stroke-dashoffset:0;stroke-opacity:1"/><path transform="matrix(4.225 0 0 4.225 -1440.171 -885.757)" d="M539.806 261.932a8.817 8.817 0 1 1-17.635 0 8.817 8.817 0 1 1 17.635 0z" id="path1551" style="fill:#fadc06;fill-opacity:1;fill-rule:nonzero;stroke:#f58006;stroke-width:4.0247698;stroke-linecap:butt;stroke-linejoin:round;stroke-miterlimit:4;stroke-dashoffset:0;stroke-opacity:1"/></g></svg>