<svg xmlns="http://www.w3.org/2000/svg" xmlns:xlink="http://www.w3.org/1999/xlink" id="svg20902" viewBox="0 0 418.95 417.1" version="1.0"><defs id="defs20905"><linearGradient id="linearGradient26865"><stop id="stop26867" stop-color="#4de543" offset="0"/><stop id="stop26869" stop-color="#358623" offset="1"/></linearGradient><linearGradient id="linearGradient26879" x1="80.689" xlink:href="#linearGradient26865" gradientUnits="userSpaceOnUse" y1="111.95" gradientTransform="translate(-14.378 -15.825) scale(1.5107)" x2="182.93" y2="68.105"/><linearGradient id="linearGradient26895" x1="272.47" xlink:href="#linearGradient26865" gradientUnits="userSpaceOnUse" y1="170" gradientTransform="translate(-14.378 -15.825) scale(1.5107)" x2="218.3" y2="101.06"/><radialGradient id="radialGradient21893" gradientUnits="userSpaceOnUse" cy="159.24" cx="176.41" gradientTransform="matrix(-1.4965 0 0 -1.3949 439.26 384.89)" r="16.521"><stop id="stop21887" stop-color="#e0b3ff" offset="0"/><stop id="stop21895" stop-color="#6d1fc5" offset=".225"/><stop id="stop21897" stop-color="#2a1d44" offset=".76"/><stop id="stop21889" stop-color="#5500b4" offset="1"/></radialGradient></defs><g id="layer2" transform="translate(-28.156 -30.989)" fill-rule="evenodd"><path id="path22011" fill="url('#linearGradient26895')" d="M292.95 106.2c4.55 5.24 10.5 9.97 20.55 13.21l.49-5.38c6.01-1.01 11.14 3.17 16.15 8.13 16.72-.32 40.18 12.91 54.32 24.17-6.28.84-12.8 1.6-13.7 4.4 2.22 6.14 14.04 9.63 30.83 11.74 7.68 2.66 15.33 6.04 22.51 20.56-10.14-2.32-14.66-1.51-20.55-1.47 8.89 4.48 18 10.93 26.43 11.26 3.57 5.3 7.4 12.16 9.23 23.47 1.2 7.44 7.82 15.12 7.89 22.04-5.23 1.02-14.84-6.15-19.57-5.38 2.89 6.25 5.34 12.56 12.11 18.33 3.62 11.04 2.07 21.68-.96 31.14-2.56 8.02-3.72 15.8-7.02 18.59-4.65-8.41-12.29-16.24-18.81-19.13l-.76 8.01c-10.57-.58-18.9-2.23-26.98-10.27.24-4.44-.42-6.52-2.6-11.93-11.05-4.28-35.6-6.1-38.66-19.08-3.19-1.36-5.02 6.68-3.43 8.8-13.54.24-19.46-6.39-23-15.17-2.33-7.84-1.77-17.03 2.45-27.89-7.51 4.42-15.01 11.01-22.52 7.83-3.44-7.93-5.94-16.48-4.89-27.41 1.45-5.05 3.45-10.11 5.38-15.17-4.86 1.9-7.73 10.68-13.7 9.3-1.06-8.15-1.44-17.21.49-29.36.87-8.88 3.02-15.63 5.38-22.02-2.28-1.39-4.56-3.91-6.85-8.81 3.43-1.31 5.39-.17 7.34.98-3.76-9.08-3.71-16.43-1.95-23l4.4-.49z"/><path id="path22007" style="color:#000" transform="rotate(-11.791 489.386 862.942) scale(1.69578)" fill="url('#radialGradient21893')" d="M187.89 168.24a16.521 16.521 0 1 1-33.04 0 16.521 16.521 0 1 1 33.04 0z"/><path id="path21919" style="color:#000" transform="rotate(18.474 24.655 -91.074) scale(1.69579)" fill="url('#radialGradient21893')" d="M187.89 168.24a16.521 16.521 0 1 1-33.04 0 16.521 16.521 0 1 1 33.04 0z"/><path id="path21903" style="color:#000" transform="matrix(1.593 .58138 -.58138 1.593 -2.523 31.389)" fill="url('#radialGradient21893')" d="M187.89 168.24a16.521 16.521 0 1 1-33.04 0 16.521 16.521 0 1 1 33.04 0z"/><path id="path21899" style="color:#000" transform="rotate(-56.108 383.613 415.436) scale(1.69584)" fill="url('#radialGradient21893')" d="M187.89 168.24a16.521 16.521 0 1 1-33.04 0 16.521 16.521 0 1 1 33.04 0z"/><path id="path21999" style="color:#000" transform="matrix(.70968 -1.5402 1.5402 .70968 -161.38 399.89)" fill="url('#radialGradient21893')" d="M187.89 168.24a16.521 16.521 0 1 1-33.04 0 16.521 16.521 0 1 1 33.04 0z"/><path id="path21935" style="color:#000" transform="matrix(.79451 -1.4982 1.4982 .79451 -137.48 398.16)" fill="url('#radialGradient21893')" d="M187.89 168.24a16.521 16.521 0 1 1-33.04 0 16.521 16.521 0 1 1 33.04 0z"/><path id="path22003" style="color:#000" transform="rotate(-42.318 327.708 396.8) scale(1.6958)" fill="url('#radialGradient21893')" d="M187.89 168.24a16.521 16.521 0 1 1-33.04 0 16.521 16.521 0 1 1 33.04 0z"/><path id="path21915" style="color:#000" transform="matrix(1.6922 .1112 -.1112 1.6922 -75.917 47.819)" fill="url('#radialGradient21893')" d="M187.89 168.24a16.521 16.521 0 1 1-33.04 0 16.521 16.521 0 1 1 33.04 0z"/><path id="path21911" style="color:#000" transform="matrix(.08786 -1.6935 1.6935 .08786 -50.981 622.15)" fill="url('#radialGradient21893')" d="M187.89 168.24a16.521 16.521 0 1 1-33.04 0 16.521 16.521 0 1 1 33.04 0z"/><path id="path21907" style="color:#000" transform="matrix(.61902 -1.5788 1.5788 .61902 -129.62 546)" fill="url('#radialGradient21893')" d="M187.89 168.24a16.521 16.521 0 1 1-33.04 0 16.521 16.521 0 1 1 33.04 0z"/><path id="path20914" style="color:#000" transform="translate(-84.87 102.6) scale(1.6958)" fill="url('#radialGradient21893')" d="M187.89 168.24a16.521 16.521 0 1 1-33.04 0 16.521 16.521 0 1 1 33.04 0z"/><path id="path21931" style="color:#000" transform="rotate(-88.286 274.658 277.332) scale(1.69576)" fill="url('#radialGradient21893')" d="M187.89 168.24a16.521 16.521 0 1 1-33.04 0 16.521 16.521 0 1 1 33.04 0z"/><path id="path21927" style="color:#000" transform="matrix(.41961 -1.6431 1.6431 .41961 -90.001 513.74)" fill="url('#radialGradient21893')" d="M187.89 168.24a16.521 16.521 0 1 1-33.04 0 16.521 16.521 0 1 1 33.04 0z"/><path id="path21983" style="color:#000" transform="rotate(-25.328 -46.486 347.272) scale(1.69581)" fill="url('#radialGradient21893')" d="M187.89 168.24a16.521 16.521 0 1 1-33.04 0 16.521 16.521 0 1 1 33.04 0z"/><path id="path21991" style="color:#000" transform="rotate(35.597 342.485 34.846) scale(1.69578)" fill="url('#radialGradient21893')" d="M187.89 168.24a16.521 16.521 0 1 1-33.04 0 16.521 16.521 0 1 1 33.04 0z"/><path id="path21987" style="color:#000" transform="rotate(9.527 893.082 -626.852) scale(1.69579)" fill="url('#radialGradient21893')" d="M187.89 168.24a16.521 16.521 0 1 1-33.04 0 16.521 16.521 0 1 1 33.04 0z"/><path id="path21995" style="color:#000" transform="rotate(-88.286 216.5 268.993) scale(1.69576)" fill="url('#radialGradient21893')" d="M187.89 168.24a16.521 16.521 0 1 1-33.04 0 16.521 16.521 0 1 1 33.04 0z"/><path id="path21979" style="color:#000" transform="matrix(1.6908 -.12965 .12965 1.6908 -121.49 -94.408)" fill="url('#radialGradient21893')" d="M187.89 168.24a16.521 16.521 0 1 1-33.04 0 16.521 16.521 0 1 1 33.04 0z"/><path id="path21951" style="color:#000" transform="matrix(.88192 1.4484 -1.4484 .88192 233.58 -130.5)" fill="url('#radialGradient21893')" d="M187.89 168.24a16.521 16.521 0 1 1-33.04 0 16.521 16.521 0 1 1 33.04 0z"/><path id="path21947" style="color:#000" transform="scale(1.6959) rotate(42.225 141.548 67.018)" fill="url('#radialGradient21893')" d="M187.89 168.24a16.521 16.521 0 1 1-33.04 0 16.521 16.521 0 1 1 33.04 0z"/><path id="path21943" style="color:#000" transform="scale(1.69579) rotate(19.288 98.78 -46.308)" fill="url('#radialGradient21893')" d="M187.89 168.24a16.521 16.521 0 1 1-33.04 0 16.521 16.521 0 1 1 33.04 0z"/><path id="path21923" style="color:#000" transform="rotate(-5.256 456.182 1186.24) scale(1.69583)" fill="url('#radialGradient21893')" d="M187.89 168.24a16.521 16.521 0 1 1-33.04 0 16.521 16.521 0 1 1 33.04 0z"/><path id="path21955" style="color:#000" transform="rotate(24.191 319.82 -21.807) scale(1.69582)" fill="url('#radialGradient21893')" d="M187.89 168.24a16.521 16.521 0 1 1-33.04 0 16.521 16.521 0 1 1 33.04 0z"/><path id="path21939" style="color:#000" transform="matrix(1.6955 .03112 -.03112 1.6955 -92.734 -29.686)" fill="url('#radialGradient21893')" d="M187.89 168.24a16.521 16.521 0 1 1-33.04 0 16.521 16.521 0 1 1 33.04 0z"/><path id="path21963" style="color:#000" transform="scale(1.6958) rotate(-77.53 143.16 150.264)" fill="url('#radialGradient21893')" d="M187.89 168.24a16.521 16.521 0 1 1-33.04 0 16.521 16.521 0 1 1 33.04 0z"/><path id="path21975" style="color:#000" transform="scale(1.6958) rotate(-51.592 97.227 201.222)" fill="url('#radialGradient21893')" d="M187.89 168.24a16.521 16.521 0 1 1-33.04 0 16.521 16.521 0 1 1 33.04 0z"/><path id="path21959" style="color:#000" transform="rotate(-88.286 240.227 285.656) scale(1.69576)" fill="url('#radialGradient21893')" d="M187.89 168.24a16.521 16.521 0 1 1-33.04 0 16.521 16.521 0 1 1 33.04 0z"/><path id="path21967" style="color:#000" transform="rotate(-5.547 -930.963 329.226) scale(1.69584)" fill="url('#radialGradient21893')" d="M187.89 168.24a16.521 16.521 0 1 1-33.04 0 16.521 16.521 0 1 1 33.04 0z"/><path id="path21971" style="color:#000" transform="matrix(1.4808 -.82635 .82635 1.4808 -147.95 69.977)" fill="url('#radialGradient21893')" d="M187.89 168.24a16.521 16.521 0 1 1-33.04 0 16.521 16.521 0 1 1 33.04 0z"/><path id="path24923" stroke="#5b7d39" stroke-width="1.511" fill="#5b7d39" d="M319.66 34.12c2.35-4.569 10.92-2.118 8.51 3.684-9.57 25.358-24.9 39.202-39.28 54.951 1.03 5.323 1.89 10.615 5.85 16.425l-4.34 4.91c-4.42-5.28-8-10.57-7.93-15.859-5.47 5.119-11.41 8.369-17.37 11.519-5.1 9.51-6.63 15.43-9.45 22.66l-5.66-2.45c3.12-11.33 8.81-22.22 14.92-33.051 5.47-1.188 12.5-5.101 23.98-16.806l-7.93 1.133-2.65-5.288c5.34-1.152 10.58-2.182 17.38-5.287 7.81-8.746 16.64-20.076 23.97-36.541z"/><path id="path24921" style="color:#000" fill="url('#linearGradient26879')" d="M281.52 81.475c-5.03 3.419-11.54 4.794-12.82 13.353-3.97 2.759-4.86 8.152-5.34 13.882l-8.55 10.69c-7.99 11.04-16.33 23.63-21.9 24.03-5.02.74-8.72-5.17-12.82-9.08-9.04 19.3-18.88 34.31-30.44 40.06-4.99 1.54-10 2.98-15.49 1.07-2.21-2.55 1.7-8.44 4.81-13.89-12.94.48-20.56 10.46-30.79 16.34-15.18 6.35-29.33 17.26-44.99 14.42-3.349-4.27 6.19-13.06 12.22-20.61-13.86 4.68-24.948 13.29-44.332 10.15 1.629-2.97-.34-5.54-3.204-8.01-11.323 3.82-32.306 10.27-39.718 8.79.282-8.31 17.828-19.5 29.036-29.62-3.638-9.18 5.512-15.65 10.682-22.97 5.058-.28 7.183-1.92 19.227 1.07 8.547-4.63 15.339-12.77 21.899-21.37l-2.67-10.679c-.02-1.989 3.91-4.516 14.95-8.012l-11.21-2.67c4.76-13.137 13.82-13.379 21.9-16.558 13.09-1.097 19.85 5.71 29.37 9.08 2.03-2.106-1.44-12.439-.53-15.489 5.39-4.081 11.79-.012 18.16 3.739 4.76 2.213 7.55-1.512 11.34-5.654-1.51-3.031-4.23-4.439-6.54-5.562 4.21-4.573 8.88-8.337 16.56-6.944l9.08 8.546c11.46-4.322 16.16 9.941 24.04 15.489 5.23 3.366 11.02-4.02 17.62-5.341 4.06 1.338 2.57 7.028 6.41 7.477 4.29.492 6.46-6.66 11.75-5.875 4.13.062 6.98 2.259 9.61 4.807l2.68 5.341z"/></g></svg>