<svg xmlns="http://www.w3.org/2000/svg" xmlns:xlink="http://www.w3.org/1999/xlink" id="svg3277" viewBox="0 0 640 480" version="1.1"><defs id="defs3279"><filter id="filter4669" y="-6.846" width="11.269" x="-5.135" height="14.692"><feGaussianBlur id="feGaussianBlur4671" stdDeviation="24.451"/></filter><filter id="filter4205" y="-.209" width="1.564" x="-.282" height="1.418"><feGaussianBlur id="feGaussianBlur4207" stdDeviation="16.522"/></filter><filter id="filter4855"><feGaussianBlur id="feGaussianBlur4857" stdDeviation="1.014"/></filter><filter id="filter4869" y="-.172" width="1.421" x="-.21" height="1.344"><feGaussianBlur id="feGaussianBlur4871" stdDeviation="1.018"/></filter><filter id="filter5197" y="-.246" width="1.625" x="-.313" height="1.493"><feGaussianBlur id="feGaussianBlur5199" stdDeviation="5.49"/></filter><filter id="filter5205" y="-.159" width="1.404" x="-.202" height="1.318"><feGaussianBlur id="feGaussianBlur5207" stdDeviation="3.546"/></filter><filter id="filter5209" y="-.087" width="1.222" x="-.111" height="1.175"><feGaussianBlur id="feGaussianBlur5211" stdDeviation="1.944"/></filter><filter id="filter5213" y="-.128" width="1.326" x="-.163" height="1.257"><feGaussianBlur id="feGaussianBlur5215" stdDeviation="2.859"/></filter><filter id="filter5217" y="-.118" width="1.3" x="-.15" height="1.236"><feGaussianBlur id="feGaussianBlur5219" stdDeviation="2.631"/></filter><filter id="filter19581" y="-.644" width="1.102" x="-.051" height="2.288"><feGaussianBlur id="feGaussianBlur19583" stdDeviation="4.155"/></filter><linearGradient id="linearGradient15002" x1="424.67" gradientUnits="userSpaceOnUse" y1="-192.5" gradientTransform="translate(-156.99 124.13)" x2="427.25" y2="39.844"><stop id="stop4168" stop-color="#f90" offset="0"/><stop id="stop4170" stop-color="#ffc022" offset="1"/></linearGradient><linearGradient id="linearGradient15004" x1="396.27" gradientUnits="userSpaceOnUse" y1="341.89" gradientTransform="translate(-156.99 121.55)" x2="358.84" y2="190.87"><stop id="stop4185" stop-color="#9ade00" offset="0"/><stop id="stop4187" stop-color="#9ade00" stop-opacity="0" offset="1"/></linearGradient><linearGradient id="linearGradient15006" y2="123.74" gradientUnits="userSpaceOnUse" y1="130.2" x2="472.43" x1="365.29"><stop id="stop4213" stop-color="#dc0000" offset="0"/><stop id="stop4215" stop-color="#fff" offset="1"/></linearGradient><linearGradient id="linearGradient19571" y2="197.94" gradientUnits="userSpaceOnUse" y1="192.15" x2="207.79" x1="171.8"><stop id="stop19567" stop-color="#fff" offset="0"/><stop id="stop19569" stop-color="#fff" stop-opacity="0" offset="1"/></linearGradient><radialGradient id="radialGradient15008" gradientUnits="userSpaceOnUse" cy="-215.7" cx="106.24" gradientTransform="matrix(0 -.96464 1.6519 0 462.55 -108.12)" r="25.816"><stop id="stop4841" stop-color="#fff" offset="0"/><stop id="stop4843" stop-color="#fec54e" offset="1"/></radialGradient><radialGradient id="radialGradient18694" gradientUnits="userSpaceOnUse" cy="207.44" cx="192.38" gradientTransform="matrix(1.4074 .15494 -.32637 1.4412 -10.674 -122)" r="55.676"><stop id="stop18690" stop-color="#fff" offset="0"/><stop id="stop18692" stop-color="#fff" stop-opacity="0" offset="1"/></radialGradient></defs><g id="layer1"><use id="use4015" opacity=".415" xlink:href="#use3925" transform="translate(95.25 82.945)" height="1052.362" filter="url('#filter4669')" width="744.094" y="0" x="0"/><path id="path15860" d="M252.99 363.83a98.099 7.745 0 1 1-196.2 0 98.099 7.745 0 1 1 196.2 0z" transform="matrix(1.5671 0 0 2.5454 60.379 -482.59)" filter="url('#filter19581')" stroke-width="0" fill="#999"/><path id="path18686" stroke-width="0" transform="matrix(.88525 0 0 1.2697 -16.444 -39.91)" fill="url('#radialGradient18694')" d="M280.43 150.32a55.676 81.232 0 1 1-.112-.156"/><g id="g14590" transform="matrix(.78778 0 0 .71549 105.22 105.89)"><path id="path4145" stroke-width="0" fill="url('#linearGradient15002')" d="M406.01-70.289c116.02 165.11-30.81 302.23-40.11 443.83-7.62 115.96-159.96 131.51-237.17 15.14-106.31-160.21-94.185-302.9-17.9-422.56 74.588-117.01 241.65-104.46 295.08-35.169"/><path id="path4174" opacity=".517" stroke-width="0" fill="url('#linearGradient15004')" d="M64.923 235.61c9.603 48.759 30.391 99.482 65.094 151.78 77.215 116.37 229.57 100.83 237.19-15.125 2.52-38.36 16.931-71.056 34.719-102.44-95.46 70.673-232.15 65.204-321.38-18.219a246.67 246.67 0 0 1-15.625-16z"/><path id="path4191" opacity=".517" d="M484.95-238.82c17.228 1.975 17.786 5.243 1.248 7.3-16.54 2.057-43.912 2.124-61.14.15-17.227-1.976-17.785-5.244-1.247-7.301 16.506-2.053 43.813-2.124 61.053-.159" transform="matrix(.8209 0 0 1 -90.985 117.68)" stroke-width="0" fill="#804d00"/><path id="path4197" stroke="#000" stroke-width="1" fill="#0e232e" d="m263.81-117.42 29.688-1.29-1.29-11.618-6.455-7.744z"/><path id="path4199" opacity=".273" d="M464.99 50.787c28.027 36.286 28.936 96.344 2.03 134.14-26.906 37.798-71.438 39.024-99.466 2.738-28.027-36.286-28.936-96.344-2.03-134.14 26.853-37.724 71.278-39.03 99.325-2.92" transform="translate(-204.75 125.42)" filter="url('#filter4205')" stroke-width="0" fill="#fff"/><path id="path4209" opacity=".273" d="M464.99 50.787c28.027 36.286 28.936 96.344 2.03 134.14-26.906 37.798-71.438 39.024-99.466 2.738-28.027-36.286-28.936-96.344-2.03-134.14 26.853-37.724 71.278-39.03 99.325-2.92" transform="matrix(0 1.8924 -1.1439 0 439.56 -734.17)" filter="url('#filter4205')" stroke-width="0" fill="url('#linearGradient15006')"/><g id="g4235" opacity=".088" stroke-width="0" fill="#b88100" transform="matrix(.46698 0 0 .77594 -127.44 101.36)"><path id="path4219" transform="matrix(.28684 0 0 .32341 531.55 -84.828)" d="M763.95-119.98c3.6 7.405 3.717 19.662.26 27.376-3.455 7.714-9.175 7.964-12.774.559-3.6-7.406-3.717-19.662-.261-27.376 3.449-7.7 9.155-7.966 12.757-.596"/><path id="path4223" transform="matrix(.28684 0 0 .32341 547.61 -84.828)" d="M763.95-119.98c3.6 7.405 3.717 19.662.26 27.376-3.455 7.714-9.175 7.964-12.774.559-3.6-7.406-3.717-19.662-.261-27.376 3.449-7.7 9.155-7.966 12.757-.596"/><path id="path4225" transform="matrix(.28684 0 0 .32341 541.19 -56.798)" d="M763.95-119.98c3.6 7.405 3.717 19.662.26 27.376-3.455 7.714-9.175 7.964-12.774.559-3.6-7.406-3.717-19.662-.261-27.376 3.449-7.7 9.155-7.966 12.757-.596"/><path id="path4227" transform="matrix(.28684 0 0 .32341 558.86 -56.798)" d="M763.95-119.98c3.6 7.405 3.717 19.662.26 27.376-3.455 7.714-9.175 7.964-12.774.559-3.6-7.406-3.717-19.662-.261-27.376 3.449-7.7 9.155-7.966 12.757-.596"/><path id="path4229" transform="matrix(.28684 0 0 .32341 550.83 -43.862)" d="M763.95-119.98c3.6 7.405 3.717 19.662.26 27.376-3.455 7.714-9.175 7.964-12.774.559-3.6-7.406-3.717-19.662-.261-27.376 3.449-7.7 9.155-7.966 12.757-.596"/><path id="path4231" transform="matrix(.28684 0 0 .32341 528.34 -43.862)" d="M763.95-119.98c3.6 7.405 3.717 19.662.26 27.376-3.455 7.714-9.175 7.964-12.774.559-3.6-7.406-3.717-19.662-.261-27.376 3.449-7.7 9.155-7.966 12.757-.596"/><path id="path4233" transform="matrix(.28684 0 0 .32341 521.91 -56.798)" d="M763.95-119.98c3.6 7.405 3.717 19.662.26 27.376-3.455 7.714-9.175 7.964-12.774.559-3.6-7.406-3.717-19.662-.261-27.376 3.449-7.7 9.155-7.966 12.757-.596"/></g><g id="g4322" opacity=".088" stroke-width="0" fill="#f60" transform="matrix(.5 0 0 .5 -149.85 102.77)"><path id="path4324" transform="matrix(.28684 0 0 .32341 531.55 -84.828)" d="M763.95-119.98c3.6 7.405 3.717 19.662.26 27.376-3.455 7.714-9.175 7.964-12.774.559-3.6-7.406-3.717-19.662-.261-27.376 3.449-7.7 9.155-7.966 12.757-.596"/><path id="path4326" transform="matrix(.28684 0 0 .32341 547.61 -84.828)" d="M763.95-119.98c3.6 7.405 3.717 19.662.26 27.376-3.455 7.714-9.175 7.964-12.774.559-3.6-7.406-3.717-19.662-.261-27.376 3.449-7.7 9.155-7.966 12.757-.596"/><path id="path4328" transform="matrix(.28684 0 0 .32341 541.19 -56.798)" d="M763.95-119.98c3.6 7.405 3.717 19.662.26 27.376-3.455 7.714-9.175 7.964-12.774.559-3.6-7.406-3.717-19.662-.261-27.376 3.449-7.7 9.155-7.966 12.757-.596"/><path id="path4330" transform="matrix(.28684 0 0 .32341 558.86 -56.798)" d="M763.95-119.98c3.6 7.405 3.717 19.662.26 27.376-3.455 7.714-9.175 7.964-12.774.559-3.6-7.406-3.717-19.662-.261-27.376 3.449-7.7 9.155-7.966 12.757-.596"/><path id="path4332" transform="matrix(.28684 0 0 .32341 550.83 -43.862)" d="M763.95-119.98c3.6 7.405 3.717 19.662.26 27.376-3.455 7.714-9.175 7.964-12.774.559-3.6-7.406-3.717-19.662-.261-27.376 3.449-7.7 9.155-7.966 12.757-.596"/><path id="path4334" transform="matrix(.28684 0 0 .32341 528.34 -43.862)" d="M763.95-119.98c3.6 7.405 3.717 19.662.26 27.376-3.455 7.714-9.175 7.964-12.774.559-3.6-7.406-3.717-19.662-.261-27.376 3.449-7.7 9.155-7.966 12.757-.596"/><path id="path4336" transform="matrix(.28684 0 0 .32341 521.91 -56.798)" d="M763.95-119.98c3.6 7.405 3.717 19.662.26 27.376-3.455 7.714-9.175 7.964-12.774.559-3.6-7.406-3.717-19.662-.261-27.376 3.449-7.7 9.155-7.966 12.757-.596"/></g><g id="g4338" opacity=".088" stroke-width="0" fill="#f60" transform="matrix(.5 0 0 .5 -169.85 102.77)"><path id="path4340" transform="matrix(.28684 0 0 .32341 531.55 -84.828)" d="M763.95-119.98c3.6 7.405 3.717 19.662.26 27.376-3.455 7.714-9.175 7.964-12.774.559-3.6-7.406-3.717-19.662-.261-27.376 3.449-7.7 9.155-7.966 12.757-.596"/><path id="path4342" transform="matrix(.28684 0 0 .32341 547.61 -84.828)" d="M763.95-119.98c3.6 7.405 3.717 19.662.26 27.376-3.455 7.714-9.175 7.964-12.774.559-3.6-7.406-3.717-19.662-.261-27.376 3.449-7.7 9.155-7.966 12.757-.596"/><path id="path4344" transform="matrix(.28684 0 0 .32341 541.19 -56.798)" d="M763.95-119.98c3.6 7.405 3.717 19.662.26 27.376-3.455 7.714-9.175 7.964-12.774.559-3.6-7.406-3.717-19.662-.261-27.376 3.449-7.7 9.155-7.966 12.757-.596"/><path id="path4346" transform="matrix(.28684 0 0 .32341 558.86 -56.798)" d="M763.95-119.98c3.6 7.405 3.717 19.662.26 27.376-3.455 7.714-9.175 7.964-12.774.559-3.6-7.406-3.717-19.662-.261-27.376 3.449-7.7 9.155-7.966 12.757-.596"/><path id="path4348" transform="matrix(.28684 0 0 .32341 550.83 -43.862)" d="M763.95-119.98c3.6 7.405 3.717 19.662.26 27.376-3.455 7.714-9.175 7.964-12.774.559-3.6-7.406-3.717-19.662-.261-27.376 3.449-7.7 9.155-7.966 12.757-.596"/><path id="path4350" transform="matrix(.28684 0 0 .32341 528.34 -43.862)" d="M763.95-119.98c3.6 7.405 3.717 19.662.26 27.376-3.455 7.714-9.175 7.964-12.774.559-3.6-7.406-3.717-19.662-.261-27.376 3.449-7.7 9.155-7.966 12.757-.596"/><path id="path4352" transform="matrix(.28684 0 0 .32341 521.91 -56.798)" d="M763.95-119.98c3.6 7.405 3.717 19.662.26 27.376-3.455 7.714-9.175 7.964-12.774.559-3.6-7.406-3.717-19.662-.261-27.376 3.449-7.7 9.155-7.966 12.757-.596"/></g><g id="g4354" opacity=".088" stroke-width="0" fill="#f60" transform="matrix(.46698 0 0 .77594 -154.52 110.68)"><path id="path4356" transform="matrix(.28684 0 0 .32341 531.55 -84.828)" d="M763.95-119.98c3.6 7.405 3.717 19.662.26 27.376-3.455 7.714-9.175 7.964-12.774.559-3.6-7.406-3.717-19.662-.261-27.376 3.449-7.7 9.155-7.966 12.757-.596"/><path id="path4358" transform="matrix(.28684 0 0 .32341 547.61 -84.828)" d="M763.95-119.98c3.6 7.405 3.717 19.662.26 27.376-3.455 7.714-9.175 7.964-12.774.559-3.6-7.406-3.717-19.662-.261-27.376 3.449-7.7 9.155-7.966 12.757-.596"/><path id="path4360" transform="matrix(.28684 0 0 .32341 541.19 -56.798)" d="M763.95-119.98c3.6 7.405 3.717 19.662.26 27.376-3.455 7.714-9.175 7.964-12.774.559-3.6-7.406-3.717-19.662-.261-27.376 3.449-7.7 9.155-7.966 12.757-.596"/><path id="path4362" transform="matrix(.28684 0 0 .32341 558.86 -56.798)" d="M763.95-119.98c3.6 7.405 3.717 19.662.26 27.376-3.455 7.714-9.175 7.964-12.774.559-3.6-7.406-3.717-19.662-.261-27.376 3.449-7.7 9.155-7.966 12.757-.596"/><path id="path4364" transform="matrix(.28684 0 0 .32341 550.83 -43.862)" d="M763.95-119.98c3.6 7.405 3.717 19.662.26 27.376-3.455 7.714-9.175 7.964-12.774.559-3.6-7.406-3.717-19.662-.261-27.376 3.449-7.7 9.155-7.966 12.757-.596"/><path id="path4366" transform="matrix(.28684 0 0 .32341 528.34 -43.862)" d="M763.95-119.98c3.6 7.405 3.717 19.662.26 27.376-3.455 7.714-9.175 7.964-12.774.559-3.6-7.406-3.717-19.662-.261-27.376 3.449-7.7 9.155-7.966 12.757-.596"/><path id="path4368" transform="matrix(.28684 0 0 .32341 521.91 -56.798)" d="M763.95-119.98c3.6 7.405 3.717 19.662.26 27.376-3.455 7.714-9.175 7.964-12.774.559-3.6-7.406-3.717-19.662-.261-27.376 3.449-7.7 9.155-7.966 12.757-.596"/></g><g id="g4370" opacity=".088" stroke-width="0" fill="#b88100" transform="matrix(.5 0 0 .5 -158.85 42.768)"><path id="path4372" transform="matrix(.28684 0 0 .32341 531.55 -84.828)" d="M763.95-119.98c3.6 7.405 3.717 19.662.26 27.376-3.455 7.714-9.175 7.964-12.774.559-3.6-7.406-3.717-19.662-.261-27.376 3.449-7.7 9.155-7.966 12.757-.596"/><path id="path4374" transform="matrix(.28684 0 0 .32341 547.61 -84.828)" d="M763.95-119.98c3.6 7.405 3.717 19.662.26 27.376-3.455 7.714-9.175 7.964-12.774.559-3.6-7.406-3.717-19.662-.261-27.376 3.449-7.7 9.155-7.966 12.757-.596"/><path id="path4376" transform="matrix(.28684 0 0 .32341 541.19 -56.798)" d="M763.95-119.98c3.6 7.405 3.717 19.662.26 27.376-3.455 7.714-9.175 7.964-12.774.559-3.6-7.406-3.717-19.662-.261-27.376 3.449-7.7 9.155-7.966 12.757-.596"/><path id="path4378" transform="matrix(.28684 0 0 .32341 558.86 -56.798)" d="M763.95-119.98c3.6 7.405 3.717 19.662.26 27.376-3.455 7.714-9.175 7.964-12.774.559-3.6-7.406-3.717-19.662-.261-27.376 3.449-7.7 9.155-7.966 12.757-.596"/><path id="path4380" transform="matrix(.28684 0 0 .32341 550.83 -43.862)" d="M763.95-119.98c3.6 7.405 3.717 19.662.26 27.376-3.455 7.714-9.175 7.964-12.774.559-3.6-7.406-3.717-19.662-.261-27.376 3.449-7.7 9.155-7.966 12.757-.596"/><path id="path4382" transform="matrix(.28684 0 0 .32341 528.34 -43.862)" d="M763.95-119.98c3.6 7.405 3.717 19.662.26 27.376-3.455 7.714-9.175 7.964-12.774.559-3.6-7.406-3.717-19.662-.261-27.376 3.449-7.7 9.155-7.966 12.757-.596"/><path id="path4384" transform="matrix(.28684 0 0 .32341 521.91 -56.798)" d="M763.95-119.98c3.6 7.405 3.717 19.662.26 27.376-3.455 7.714-9.175 7.964-12.774.559-3.6-7.406-3.717-19.662-.261-27.376 3.449-7.7 9.155-7.966 12.757-.596"/></g><g id="g4386" opacity=".088" stroke-width="0" fill="#b88100" transform="matrix(.5 0 0 .5 -128.85 42.768)"><path id="path4388" transform="matrix(.28684 0 0 .32341 531.55 -84.828)" d="M763.95-119.98c3.6 7.405 3.717 19.662.26 27.376-3.455 7.714-9.175 7.964-12.774.559-3.6-7.406-3.717-19.662-.261-27.376 3.449-7.7 9.155-7.966 12.757-.596"/><path id="path4390" transform="matrix(.28684 0 0 .32341 547.61 -84.828)" d="M763.95-119.98c3.6 7.405 3.717 19.662.26 27.376-3.455 7.714-9.175 7.964-12.774.559-3.6-7.406-3.717-19.662-.261-27.376 3.449-7.7 9.155-7.966 12.757-.596"/><path id="path4392" transform="matrix(.28684 0 0 .32341 541.19 -56.798)" d="M763.95-119.98c3.6 7.405 3.717 19.662.26 27.376-3.455 7.714-9.175 7.964-12.774.559-3.6-7.406-3.717-19.662-.261-27.376 3.449-7.7 9.155-7.966 12.757-.596"/><path id="path4394" transform="matrix(.28684 0 0 .32341 558.86 -56.798)" d="M763.95-119.98c3.6 7.405 3.717 19.662.26 27.376-3.455 7.714-9.175 7.964-12.774.559-3.6-7.406-3.717-19.662-.261-27.376 3.449-7.7 9.155-7.966 12.757-.596"/><path id="path4396" transform="matrix(.28684 0 0 .32341 550.83 -43.862)" d="M763.95-119.98c3.6 7.405 3.717 19.662.26 27.376-3.455 7.714-9.175 7.964-12.774.559-3.6-7.406-3.717-19.662-.261-27.376 3.449-7.7 9.155-7.966 12.757-.596"/><path id="path4398" transform="matrix(.28684 0 0 .32341 528.34 -43.862)" d="M763.95-119.98c3.6 7.405 3.717 19.662.26 27.376-3.455 7.714-9.175 7.964-12.774.559-3.6-7.406-3.717-19.662-.261-27.376 3.449-7.7 9.155-7.966 12.757-.596"/><path id="path4400" transform="matrix(.28684 0 0 .32341 521.91 -56.798)" d="M763.95-119.98c3.6 7.405 3.717 19.662.26 27.376-3.455 7.714-9.175 7.964-12.774.559-3.6-7.406-3.717-19.662-.261-27.376 3.449-7.7 9.155-7.966 12.757-.596"/></g><g id="g4402" opacity=".088" stroke-width="0" fill="#b88100" transform="matrix(.5 0 0 .5 -98.846 42.768)"><path id="path4404" transform="matrix(.28684 0 0 .32341 531.55 -84.828)" d="M763.95-119.98c3.6 7.405 3.717 19.662.26 27.376-3.455 7.714-9.175 7.964-12.774.559-3.6-7.406-3.717-19.662-.261-27.376 3.449-7.7 9.155-7.966 12.757-.596"/><path id="path4406" transform="matrix(.28684 0 0 .32341 547.61 -84.828)" d="M763.95-119.98c3.6 7.405 3.717 19.662.26 27.376-3.455 7.714-9.175 7.964-12.774.559-3.6-7.406-3.717-19.662-.261-27.376 3.449-7.7 9.155-7.966 12.757-.596"/><path id="path4408" transform="matrix(.28684 0 0 .32341 541.19 -56.798)" d="M763.95-119.98c3.6 7.405 3.717 19.662.26 27.376-3.455 7.714-9.175 7.964-12.774.559-3.6-7.406-3.717-19.662-.261-27.376 3.449-7.7 9.155-7.966 12.757-.596"/><path id="path4410" transform="matrix(.28684 0 0 .32341 558.86 -56.798)" d="M763.95-119.98c3.6 7.405 3.717 19.662.26 27.376-3.455 7.714-9.175 7.964-12.774.559-3.6-7.406-3.717-19.662-.261-27.376 3.449-7.7 9.155-7.966 12.757-.596"/><path id="path4412" transform="matrix(.28684 0 0 .32341 550.83 -43.862)" d="M763.95-119.98c3.6 7.405 3.717 19.662.26 27.376-3.455 7.714-9.175 7.964-12.774.559-3.6-7.406-3.717-19.662-.261-27.376 3.449-7.7 9.155-7.966 12.757-.596"/><path id="path4414" transform="matrix(.28684 0 0 .32341 528.34 -43.862)" d="M763.95-119.98c3.6 7.405 3.717 19.662.26 27.376-3.455 7.714-9.175 7.964-12.774.559-3.6-7.406-3.717-19.662-.261-27.376 3.449-7.7 9.155-7.966 12.757-.596"/><path id="path4416" transform="matrix(.28684 0 0 .32341 521.91 -56.798)" d="M763.95-119.98c3.6 7.405 3.717 19.662.26 27.376-3.455 7.714-9.175 7.964-12.774.559-3.6-7.406-3.717-19.662-.261-27.376 3.449-7.7 9.155-7.966 12.757-.596"/></g><g id="g4418" opacity=".088" stroke-width="0" fill="#b88100" transform="matrix(.5 0 0 .5 -82.711 39.314)"><path id="path4420" transform="matrix(.28684 0 0 .32341 531.55 -84.828)" d="M763.95-119.98c3.6 7.405 3.717 19.662.26 27.376-3.455 7.714-9.175 7.964-12.774.559-3.6-7.406-3.717-19.662-.261-27.376 3.449-7.7 9.155-7.966 12.757-.596"/><path id="path4422" transform="matrix(.28684 0 0 .32341 547.61 -84.828)" d="M763.95-119.98c3.6 7.405 3.717 19.662.26 27.376-3.455 7.714-9.175 7.964-12.774.559-3.6-7.406-3.717-19.662-.261-27.376 3.449-7.7 9.155-7.966 12.757-.596"/><path id="path4424" transform="matrix(.28684 0 0 .32341 541.19 -56.798)" d="M763.95-119.98c3.6 7.405 3.717 19.662.26 27.376-3.455 7.714-9.175 7.964-12.774.559-3.6-7.406-3.717-19.662-.261-27.376 3.449-7.7 9.155-7.966 12.757-.596"/><path id="path4426" transform="matrix(.28684 0 0 .32341 558.86 -56.798)" d="M763.95-119.98c3.6 7.405 3.717 19.662.26 27.376-3.455 7.714-9.175 7.964-12.774.559-3.6-7.406-3.717-19.662-.261-27.376 3.449-7.7 9.155-7.966 12.757-.596"/><path id="path4428" transform="matrix(.28684 0 0 .32341 550.83 -43.862)" d="M763.95-119.98c3.6 7.405 3.717 19.662.26 27.376-3.455 7.714-9.175 7.964-12.774.559-3.6-7.406-3.717-19.662-.261-27.376 3.449-7.7 9.155-7.966 12.757-.596"/><path id="path4430" transform="matrix(.28684 0 0 .32341 528.34 -43.862)" d="M763.95-119.98c3.6 7.405 3.717 19.662.26 27.376-3.455 7.714-9.175 7.964-12.774.559-3.6-7.406-3.717-19.662-.261-27.376 3.449-7.7 9.155-7.966 12.757-.596"/><path id="path4432" transform="matrix(.28684 0 0 .32341 521.91 -56.798)" d="M763.95-119.98c3.6 7.405 3.717 19.662.26 27.376-3.455 7.714-9.175 7.964-12.774.559-3.6-7.406-3.717-19.662-.261-27.376 3.449-7.7 9.155-7.966 12.757-.596"/></g><g id="g4450" opacity=".02" stroke-width="0" fill="#0e232e" transform="translate(-440.96 161.87)"><path id="path4452" transform="matrix(.28684 0 0 .32341 531.55 -84.828)" d="M763.95-119.98c3.6 7.405 3.717 19.662.26 27.376-3.455 7.714-9.175 7.964-12.774.559-3.6-7.406-3.717-19.662-.261-27.376 3.449-7.7 9.155-7.966 12.757-.596"/><path id="path4454" transform="matrix(.28684 0 0 .32341 547.61 -84.828)" d="M763.95-119.98c3.6 7.405 3.717 19.662.26 27.376-3.455 7.714-9.175 7.964-12.774.559-3.6-7.406-3.717-19.662-.261-27.376 3.449-7.7 9.155-7.966 12.757-.596"/><path id="path4456" transform="matrix(.28684 0 0 .32341 541.19 -56.798)" d="M763.95-119.98c3.6 7.405 3.717 19.662.26 27.376-3.455 7.714-9.175 7.964-12.774.559-3.6-7.406-3.717-19.662-.261-27.376 3.449-7.7 9.155-7.966 12.757-.596"/><path id="path4458" transform="matrix(.28684 0 0 .32341 558.86 -56.798)" d="M763.95-119.98c3.6 7.405 3.717 19.662.26 27.376-3.455 7.714-9.175 7.964-12.774.559-3.6-7.406-3.717-19.662-.261-27.376 3.449-7.7 9.155-7.966 12.757-.596"/><path id="path4460" transform="matrix(.28684 0 0 .32341 550.83 -43.862)" d="M763.95-119.98c3.6 7.405 3.717 19.662.26 27.376-3.455 7.714-9.175 7.964-12.774.559-3.6-7.406-3.717-19.662-.261-27.376 3.449-7.7 9.155-7.966 12.757-.596"/><path id="path4462" transform="matrix(.28684 0 0 .32341 528.34 -43.862)" d="M763.95-119.98c3.6 7.405 3.717 19.662.26 27.376-3.455 7.714-9.175 7.964-12.774.559-3.6-7.406-3.717-19.662-.261-27.376 3.449-7.7 9.155-7.966 12.757-.596"/><path id="path4464" transform="matrix(.28684 0 0 .32341 521.91 -56.798)" d="M763.95-119.98c3.6 7.405 3.717 19.662.26 27.376-3.455 7.714-9.175 7.964-12.774.559-3.6-7.406-3.717-19.662-.261-27.376 3.449-7.7 9.155-7.966 12.757-.596"/></g><g id="g4466" opacity=".088" transform="translate(-648.76 270.3)" filter="url('#filter5197')" stroke-width="0" fill="#0e232e"><path id="path4468" transform="matrix(.28684 0 0 .32341 531.55 -84.828)" d="M763.95-119.98c3.6 7.405 3.717 19.662.26 27.376-3.455 7.714-9.175 7.964-12.774.559-3.6-7.406-3.717-19.662-.261-27.376 3.449-7.7 9.155-7.966 12.757-.596"/><path id="path4470" transform="matrix(.28684 0 0 .32341 547.61 -84.828)" d="M763.95-119.98c3.6 7.405 3.717 19.662.26 27.376-3.455 7.714-9.175 7.964-12.774.559-3.6-7.406-3.717-19.662-.261-27.376 3.449-7.7 9.155-7.966 12.757-.596"/><path id="path4472" transform="matrix(.28684 0 0 .32341 541.19 -56.798)" d="M763.95-119.98c3.6 7.405 3.717 19.662.26 27.376-3.455 7.714-9.175 7.964-12.774.559-3.6-7.406-3.717-19.662-.261-27.376 3.449-7.7 9.155-7.966 12.757-.596"/><path id="path4474" transform="matrix(.28684 0 0 .32341 558.86 -56.798)" d="M763.95-119.98c3.6 7.405 3.717 19.662.26 27.376-3.455 7.714-9.175 7.964-12.774.559-3.6-7.406-3.717-19.662-.261-27.376 3.449-7.7 9.155-7.966 12.757-.596"/><path id="path4476" transform="matrix(.28684 0 0 .32341 550.83 -43.862)" d="M763.95-119.98c3.6 7.405 3.717 19.662.26 27.376-3.455 7.714-9.175 7.964-12.774.559-3.6-7.406-3.717-19.662-.261-27.376 3.449-7.7 9.155-7.966 12.757-.596"/><path id="path4478" transform="matrix(.28684 0 0 .32341 528.34 -43.862)" d="M763.95-119.98c3.6 7.405 3.717 19.662.26 27.376-3.455 7.714-9.175 7.964-12.774.559-3.6-7.406-3.717-19.662-.261-27.376 3.449-7.7 9.155-7.966 12.757-.596"/><path id="path4480" transform="matrix(.28684 0 0 .32341 521.91 -56.798)" d="M763.95-119.98c3.6 7.405 3.717 19.662.26 27.376-3.455 7.714-9.175 7.964-12.774.559-3.6-7.406-3.717-19.662-.261-27.376 3.449-7.7 9.155-7.966 12.757-.596"/></g><g id="g4482" opacity=".088" transform="translate(-571.24 252.9)" filter="url('#filter5217')" stroke-width="0" fill="#804d00"><path id="path4484" transform="matrix(.28684 0 0 .32341 531.55 -84.828)" d="M763.95-119.98c3.6 7.405 3.717 19.662.26 27.376-3.455 7.714-9.175 7.964-12.774.559-3.6-7.406-3.717-19.662-.261-27.376 3.449-7.7 9.155-7.966 12.757-.596"/><path id="path4486" transform="matrix(.28684 0 0 .32341 547.61 -84.828)" d="M763.95-119.98c3.6 7.405 3.717 19.662.26 27.376-3.455 7.714-9.175 7.964-12.774.559-3.6-7.406-3.717-19.662-.261-27.376 3.449-7.7 9.155-7.966 12.757-.596"/><path id="path4488" transform="matrix(.28684 0 0 .32341 541.19 -56.798)" d="M763.95-119.98c3.6 7.405 3.717 19.662.26 27.376-3.455 7.714-9.175 7.964-12.774.559-3.6-7.406-3.717-19.662-.261-27.376 3.449-7.7 9.155-7.966 12.757-.596"/><path id="path4490" transform="matrix(.28684 0 0 .32341 558.86 -56.798)" d="M763.95-119.98c3.6 7.405 3.717 19.662.26 27.376-3.455 7.714-9.175 7.964-12.774.559-3.6-7.406-3.717-19.662-.261-27.376 3.449-7.7 9.155-7.966 12.757-.596"/><path id="path4492" transform="matrix(.28684 0 0 .32341 550.83 -43.862)" d="M763.95-119.98c3.6 7.405 3.717 19.662.26 27.376-3.455 7.714-9.175 7.964-12.774.559-3.6-7.406-3.717-19.662-.261-27.376 3.449-7.7 9.155-7.966 12.757-.596"/><path id="path4494" transform="matrix(.28684 0 0 .32341 528.34 -43.862)" d="M763.95-119.98c3.6 7.405 3.717 19.662.26 27.376-3.455 7.714-9.175 7.964-12.774.559-3.6-7.406-3.717-19.662-.261-27.376 3.449-7.7 9.155-7.966 12.757-.596"/><path id="path4496" transform="matrix(.28684 0 0 .32341 521.91 -56.798)" d="M763.95-119.98c3.6 7.405 3.717 19.662.26 27.376-3.455 7.714-9.175 7.964-12.774.559-3.6-7.406-3.717-19.662-.261-27.376 3.449-7.7 9.155-7.966 12.757-.596"/></g><g id="g4498" opacity=".088" stroke-width="0" fill="#f60" transform="matrix(.5 0 0 .5 -158.85 112.77)"><path id="path4500" transform="matrix(.28684 0 0 .32341 531.55 -84.828)" d="M763.95-119.98c3.6 7.405 3.717 19.662.26 27.376-3.455 7.714-9.175 7.964-12.774.559-3.6-7.406-3.717-19.662-.261-27.376 3.449-7.7 9.155-7.966 12.757-.596"/><path id="path4502" transform="matrix(.28684 0 0 .32341 547.61 -84.828)" d="M763.95-119.98c3.6 7.405 3.717 19.662.26 27.376-3.455 7.714-9.175 7.964-12.774.559-3.6-7.406-3.717-19.662-.261-27.376 3.449-7.7 9.155-7.966 12.757-.596"/><path id="path4504" transform="matrix(.28684 0 0 .32341 541.19 -56.798)" d="M763.95-119.98c3.6 7.405 3.717 19.662.26 27.376-3.455 7.714-9.175 7.964-12.774.559-3.6-7.406-3.717-19.662-.261-27.376 3.449-7.7 9.155-7.966 12.757-.596"/><path id="path4506" transform="matrix(.28684 0 0 .32341 558.86 -56.798)" d="M763.95-119.98c3.6 7.405 3.717 19.662.26 27.376-3.455 7.714-9.175 7.964-12.774.559-3.6-7.406-3.717-19.662-.261-27.376 3.449-7.7 9.155-7.966 12.757-.596"/><path id="path4508" transform="matrix(.28684 0 0 .32341 550.83 -43.862)" d="M763.95-119.98c3.6 7.405 3.717 19.662.26 27.376-3.455 7.714-9.175 7.964-12.774.559-3.6-7.406-3.717-19.662-.261-27.376 3.449-7.7 9.155-7.966 12.757-.596"/><path id="path4510" transform="matrix(.28684 0 0 .32341 528.34 -43.862)" d="M763.95-119.98c3.6 7.405 3.717 19.662.26 27.376-3.455 7.714-9.175 7.964-12.774.559-3.6-7.406-3.717-19.662-.261-27.376 3.449-7.7 9.155-7.966 12.757-.596"/><path id="path4512" transform="matrix(.28684 0 0 .32341 521.91 -56.798)" d="M763.95-119.98c3.6 7.405 3.717 19.662.26 27.376-3.455 7.714-9.175 7.964-12.774.559-3.6-7.406-3.717-19.662-.261-27.376 3.449-7.7 9.155-7.966 12.757-.596"/></g><g id="g4514" opacity=".088" stroke-width="0" fill="#f60" transform="matrix(.5 0 0 .5 -128.85 112.77)"><path id="path4516" transform="matrix(.28684 0 0 .32341 531.55 -84.828)" d="M763.95-119.98c3.6 7.405 3.717 19.662.26 27.376-3.455 7.714-9.175 7.964-12.774.559-3.6-7.406-3.717-19.662-.261-27.376 3.449-7.7 9.155-7.966 12.757-.596"/><path id="path4518" transform="matrix(.28684 0 0 .32341 547.61 -84.828)" d="M763.95-119.98c3.6 7.405 3.717 19.662.26 27.376-3.455 7.714-9.175 7.964-12.774.559-3.6-7.406-3.717-19.662-.261-27.376 3.449-7.7 9.155-7.966 12.757-.596"/><path id="path4520" transform="matrix(.28684 0 0 .32341 541.19 -56.798)" d="M763.95-119.98c3.6 7.405 3.717 19.662.26 27.376-3.455 7.714-9.175 7.964-12.774.559-3.6-7.406-3.717-19.662-.261-27.376 3.449-7.7 9.155-7.966 12.757-.596"/><path id="path4522" transform="matrix(.28684 0 0 .32341 558.86 -56.798)" d="M763.95-119.98c3.6 7.405 3.717 19.662.26 27.376-3.455 7.714-9.175 7.964-12.774.559-3.6-7.406-3.717-19.662-.261-27.376 3.449-7.7 9.155-7.966 12.757-.596"/><path id="path4524" transform="matrix(.28684 0 0 .32341 550.83 -43.862)" d="M763.95-119.98c3.6 7.405 3.717 19.662.26 27.376-3.455 7.714-9.175 7.964-12.774.559-3.6-7.406-3.717-19.662-.261-27.376 3.449-7.7 9.155-7.966 12.757-.596"/><path id="path4526" transform="matrix(.28684 0 0 .32341 528.34 -43.862)" d="M763.95-119.98c3.6 7.405 3.717 19.662.26 27.376-3.455 7.714-9.175 7.964-12.774.559-3.6-7.406-3.717-19.662-.261-27.376 3.449-7.7 9.155-7.966 12.757-.596"/><path id="path4528" transform="matrix(.28684 0 0 .32341 521.91 -56.798)" d="M763.95-119.98c3.6 7.405 3.717 19.662.26 27.376-3.455 7.714-9.175 7.964-12.774.559-3.6-7.406-3.717-19.662-.261-27.376 3.449-7.7 9.155-7.966 12.757-.596"/></g><g id="g4530" opacity=".088" stroke-width="0" fill="#9ade00" transform="translate(-492.62 247.35)"><path id="path4532" transform="matrix(.28684 0 0 .32341 531.55 -84.828)" d="M763.95-119.98c3.6 7.405 3.717 19.662.26 27.376-3.455 7.714-9.175 7.964-12.774.559-3.6-7.406-3.717-19.662-.261-27.376 3.449-7.7 9.155-7.966 12.757-.596"/><path id="path4534" transform="matrix(.28684 0 0 .32341 547.61 -84.828)" d="M763.95-119.98c3.6 7.405 3.717 19.662.26 27.376-3.455 7.714-9.175 7.964-12.774.559-3.6-7.406-3.717-19.662-.261-27.376 3.449-7.7 9.155-7.966 12.757-.596"/><path id="path4536" transform="matrix(.28684 0 0 .32341 541.19 -56.798)" d="M763.95-119.98c3.6 7.405 3.717 19.662.26 27.376-3.455 7.714-9.175 7.964-12.774.559-3.6-7.406-3.717-19.662-.261-27.376 3.449-7.7 9.155-7.966 12.757-.596"/><path id="path4538" transform="matrix(.28684 0 0 .32341 558.86 -56.798)" d="M763.95-119.98c3.6 7.405 3.717 19.662.26 27.376-3.455 7.714-9.175 7.964-12.774.559-3.6-7.406-3.717-19.662-.261-27.376 3.449-7.7 9.155-7.966 12.757-.596"/><path id="path4540" transform="matrix(.28684 0 0 .32341 550.83 -43.862)" d="M763.95-119.98c3.6 7.405 3.717 19.662.26 27.376-3.455 7.714-9.175 7.964-12.774.559-3.6-7.406-3.717-19.662-.261-27.376 3.449-7.7 9.155-7.966 12.757-.596"/><path id="path4542" transform="matrix(.28684 0 0 .32341 528.34 -43.862)" d="M763.95-119.98c3.6 7.405 3.717 19.662.26 27.376-3.455 7.714-9.175 7.964-12.774.559-3.6-7.406-3.717-19.662-.261-27.376 3.449-7.7 9.155-7.966 12.757-.596"/><path id="path4544" transform="matrix(.28684 0 0 .32341 521.91 -56.798)" d="M763.95-119.98c3.6 7.405 3.717 19.662.26 27.376-3.455 7.714-9.175 7.964-12.774.559-3.6-7.406-3.717-19.662-.261-27.376 3.449-7.7 9.155-7.966 12.757-.596"/></g><g id="g4546" opacity=".088" stroke-width="0" fill="#9ade00" transform="translate(-452.6 404.54)"><path id="path4548" transform="matrix(.28684 0 0 .32341 531.55 -84.828)" d="M763.95-119.98c3.6 7.405 3.717 19.662.26 27.376-3.455 7.714-9.175 7.964-12.774.559-3.6-7.406-3.717-19.662-.261-27.376 3.449-7.7 9.155-7.966 12.757-.596"/><path id="path4550" transform="matrix(.28684 0 0 .32341 547.61 -84.828)" d="M763.95-119.98c3.6 7.405 3.717 19.662.26 27.376-3.455 7.714-9.175 7.964-12.774.559-3.6-7.406-3.717-19.662-.261-27.376 3.449-7.7 9.155-7.966 12.757-.596"/><path id="path4552" transform="matrix(.28684 0 0 .32341 541.19 -56.798)" d="M763.95-119.98c3.6 7.405 3.717 19.662.26 27.376-3.455 7.714-9.175 7.964-12.774.559-3.6-7.406-3.717-19.662-.261-27.376 3.449-7.7 9.155-7.966 12.757-.596"/><path id="path4554" transform="matrix(.28684 0 0 .32341 558.86 -56.798)" d="M763.95-119.98c3.6 7.405 3.717 19.662.26 27.376-3.455 7.714-9.175 7.964-12.774.559-3.6-7.406-3.717-19.662-.261-27.376 3.449-7.7 9.155-7.966 12.757-.596"/><path id="path4556" transform="matrix(.28684 0 0 .32341 550.83 -43.862)" d="M763.95-119.98c3.6 7.405 3.717 19.662.26 27.376-3.455 7.714-9.175 7.964-12.774.559-3.6-7.406-3.717-19.662-.261-27.376 3.449-7.7 9.155-7.966 12.757-.596"/><path id="path4558" transform="matrix(.28684 0 0 .32341 528.34 -43.862)" d="M763.95-119.98c3.6 7.405 3.717 19.662.26 27.376-3.455 7.714-9.175 7.964-12.774.559-3.6-7.406-3.717-19.662-.261-27.376 3.449-7.7 9.155-7.966 12.757-.596"/><path id="path4560" transform="matrix(.28684 0 0 .32341 521.91 -56.798)" d="M763.95-119.98c3.6 7.405 3.717 19.662.26 27.376-3.455 7.714-9.175 7.964-12.774.559-3.6-7.406-3.717-19.662-.261-27.376 3.449-7.7 9.155-7.966 12.757-.596"/></g><g id="g4562" opacity=".01" transform="translate(-532.62 319.35)" filter="url('#filter5205')" stroke-width="0" fill="#0e232e"><path id="path4564" transform="matrix(.28684 0 0 .32341 531.55 -84.828)" d="M763.95-119.98c3.6 7.405 3.717 19.662.26 27.376-3.455 7.714-9.175 7.964-12.774.559-3.6-7.406-3.717-19.662-.261-27.376 3.449-7.7 9.155-7.966 12.757-.596"/><path id="path4566" transform="matrix(.28684 0 0 .32341 547.61 -84.828)" d="M763.95-119.98c3.6 7.405 3.717 19.662.26 27.376-3.455 7.714-9.175 7.964-12.774.559-3.6-7.406-3.717-19.662-.261-27.376 3.449-7.7 9.155-7.966 12.757-.596"/><path id="path4568" transform="matrix(.28684 0 0 .32341 541.19 -56.798)" d="M763.95-119.98c3.6 7.405 3.717 19.662.26 27.376-3.455 7.714-9.175 7.964-12.774.559-3.6-7.406-3.717-19.662-.261-27.376 3.449-7.7 9.155-7.966 12.757-.596"/><path id="path4570" transform="matrix(.28684 0 0 .32341 558.86 -56.798)" d="M763.95-119.98c3.6 7.405 3.717 19.662.26 27.376-3.455 7.714-9.175 7.964-12.774.559-3.6-7.406-3.717-19.662-.261-27.376 3.449-7.7 9.155-7.966 12.757-.596"/><path id="path4572" transform="matrix(.28684 0 0 .32341 550.83 -43.862)" d="M763.95-119.98c3.6 7.405 3.717 19.662.26 27.376-3.455 7.714-9.175 7.964-12.774.559-3.6-7.406-3.717-19.662-.261-27.376 3.449-7.7 9.155-7.966 12.757-.596"/><path id="path4574" transform="matrix(.28684 0 0 .32341 528.34 -43.862)" d="M763.95-119.98c3.6 7.405 3.717 19.662.26 27.376-3.455 7.714-9.175 7.964-12.774.559-3.6-7.406-3.717-19.662-.261-27.376 3.449-7.7 9.155-7.966 12.757-.596"/><path id="path4576" transform="matrix(.28684 0 0 .32341 521.91 -56.798)" d="M763.95-119.98c3.6 7.405 3.717 19.662.26 27.376-3.455 7.714-9.175 7.964-12.774.559-3.6-7.406-3.717-19.662-.261-27.376 3.449-7.7 9.155-7.966 12.757-.596"/></g><g id="g4578" opacity=".088" stroke-width="0" fill="#f60" transform="translate(-505.44 190.94)"><path id="path4580" transform="matrix(.28684 0 0 .32341 531.55 -84.828)" d="M763.95-119.98c3.6 7.405 3.717 19.662.26 27.376-3.455 7.714-9.175 7.964-12.774.559-3.6-7.406-3.717-19.662-.261-27.376 3.449-7.7 9.155-7.966 12.757-.596"/><path id="path4582" transform="matrix(.28684 0 0 .32341 547.61 -84.828)" d="M763.95-119.98c3.6 7.405 3.717 19.662.26 27.376-3.455 7.714-9.175 7.964-12.774.559-3.6-7.406-3.717-19.662-.261-27.376 3.449-7.7 9.155-7.966 12.757-.596"/><path id="path4584" transform="matrix(.28684 0 0 .32341 541.19 -56.798)" d="M763.95-119.98c3.6 7.405 3.717 19.662.26 27.376-3.455 7.714-9.175 7.964-12.774.559-3.6-7.406-3.717-19.662-.261-27.376 3.449-7.7 9.155-7.966 12.757-.596"/><path id="path4586" transform="matrix(.28684 0 0 .32341 558.86 -56.798)" d="M763.95-119.98c3.6 7.405 3.717 19.662.26 27.376-3.455 7.714-9.175 7.964-12.774.559-3.6-7.406-3.717-19.662-.261-27.376 3.449-7.7 9.155-7.966 12.757-.596"/><path id="path4588" transform="matrix(.28684 0 0 .32341 550.83 -43.862)" d="M763.95-119.98c3.6 7.405 3.717 19.662.26 27.376-3.455 7.714-9.175 7.964-12.774.559-3.6-7.406-3.717-19.662-.261-27.376 3.449-7.7 9.155-7.966 12.757-.596"/><path id="path4590" transform="matrix(.28684 0 0 .32341 528.34 -43.862)" d="M763.95-119.98c3.6 7.405 3.717 19.662.26 27.376-3.455 7.714-9.175 7.964-12.774.559-3.6-7.406-3.717-19.662-.261-27.376 3.449-7.7 9.155-7.966 12.757-.596"/><path id="path4592" transform="matrix(.28684 0 0 .32341 521.91 -56.798)" d="M763.95-119.98c3.6 7.405 3.717 19.662.26 27.376-3.455 7.714-9.175 7.964-12.774.559-3.6-7.406-3.717-19.662-.261-27.376 3.449-7.7 9.155-7.966 12.757-.596"/></g><g id="g4594" opacity=".088" stroke-width="0" fill="#9ade00" transform="matrix(.5 0 0 .5 -118.85 112.77)"><path id="path4596" transform="matrix(.28684 0 0 .32341 531.55 -84.828)" d="M763.95-119.98c3.6 7.405 3.717 19.662.26 27.376-3.455 7.714-9.175 7.964-12.774.559-3.6-7.406-3.717-19.662-.261-27.376 3.449-7.7 9.155-7.966 12.757-.596"/><path id="path4598" transform="matrix(.28684 0 0 .32341 547.61 -84.828)" d="M763.95-119.98c3.6 7.405 3.717 19.662.26 27.376-3.455 7.714-9.175 7.964-12.774.559-3.6-7.406-3.717-19.662-.261-27.376 3.449-7.7 9.155-7.966 12.757-.596"/><path id="path4600" transform="matrix(.28684 0 0 .32341 541.19 -56.798)" d="M763.95-119.98c3.6 7.405 3.717 19.662.26 27.376-3.455 7.714-9.175 7.964-12.774.559-3.6-7.406-3.717-19.662-.261-27.376 3.449-7.7 9.155-7.966 12.757-.596"/><path id="path4602" transform="matrix(.28684 0 0 .32341 558.86 -56.798)" d="M763.95-119.98c3.6 7.405 3.717 19.662.26 27.376-3.455 7.714-9.175 7.964-12.774.559-3.6-7.406-3.717-19.662-.261-27.376 3.449-7.7 9.155-7.966 12.757-.596"/><path id="path4604" transform="matrix(.28684 0 0 .32341 550.83 -43.862)" d="M763.95-119.98c3.6 7.405 3.717 19.662.26 27.376-3.455 7.714-9.175 7.964-12.774.559-3.6-7.406-3.717-19.662-.261-27.376 3.449-7.7 9.155-7.966 12.757-.596"/><path id="path4606" transform="matrix(.28684 0 0 .32341 528.34 -43.862)" d="M763.95-119.98c3.6 7.405 3.717 19.662.26 27.376-3.455 7.714-9.175 7.964-12.774.559-3.6-7.406-3.717-19.662-.261-27.376 3.449-7.7 9.155-7.966 12.757-.596"/><path id="path4608" transform="matrix(.28684 0 0 .32341 521.91 -56.798)" d="M763.95-119.98c3.6 7.405 3.717 19.662.26 27.376-3.455 7.714-9.175 7.964-12.774.559-3.6-7.406-3.717-19.662-.261-27.376 3.449-7.7 9.155-7.966 12.757-.596"/></g><g id="g4610" opacity=".088" stroke-width="0" fill="#9ade00" transform="matrix(.5 0 0 .5 -72.711 100.51)"><path id="path4612" transform="matrix(.28684 0 0 .32341 531.55 -84.828)" d="M763.95-119.98c3.6 7.405 3.717 19.662.26 27.376-3.455 7.714-9.175 7.964-12.774.559-3.6-7.406-3.717-19.662-.261-27.376 3.449-7.7 9.155-7.966 12.757-.596"/><path id="path4614" transform="matrix(.28684 0 0 .32341 547.61 -84.828)" d="M763.95-119.98c3.6 7.405 3.717 19.662.26 27.376-3.455 7.714-9.175 7.964-12.774.559-3.6-7.406-3.717-19.662-.261-27.376 3.449-7.7 9.155-7.966 12.757-.596"/><path id="path4616" transform="matrix(.28684 0 0 .32341 541.19 -56.798)" d="M763.95-119.98c3.6 7.405 3.717 19.662.26 27.376-3.455 7.714-9.175 7.964-12.774.559-3.6-7.406-3.717-19.662-.261-27.376 3.449-7.7 9.155-7.966 12.757-.596"/><path id="path4618" transform="matrix(.28684 0 0 .32341 558.86 -56.798)" d="M763.95-119.98c3.6 7.405 3.717 19.662.26 27.376-3.455 7.714-9.175 7.964-12.774.559-3.6-7.406-3.717-19.662-.261-27.376 3.449-7.7 9.155-7.966 12.757-.596"/><path id="path4620" transform="matrix(.28684 0 0 .32341 550.83 -43.862)" d="M763.95-119.98c3.6 7.405 3.717 19.662.26 27.376-3.455 7.714-9.175 7.964-12.774.559-3.6-7.406-3.717-19.662-.261-27.376 3.449-7.7 9.155-7.966 12.757-.596"/><path id="path4622" transform="matrix(.28684 0 0 .32341 528.34 -43.862)" d="M763.95-119.98c3.6 7.405 3.717 19.662.26 27.376-3.455 7.714-9.175 7.964-12.774.559-3.6-7.406-3.717-19.662-.261-27.376 3.449-7.7 9.155-7.966 12.757-.596"/><path id="path4624" transform="matrix(.28684 0 0 .32341 521.91 -56.798)" d="M763.95-119.98c3.6 7.405 3.717 19.662.26 27.376-3.455 7.714-9.175 7.964-12.774.559-3.6-7.406-3.717-19.662-.261-27.376 3.449-7.7 9.155-7.966 12.757-.596"/></g><g id="g4626" opacity=".088" stroke-width="0" fill="#b88100" transform="matrix(.5 0 0 .5 -59.52 68.045)"><path id="path4628" transform="matrix(.28684 0 0 .32341 531.55 -84.828)" d="M763.95-119.98c3.6 7.405 3.717 19.662.26 27.376-3.455 7.714-9.175 7.964-12.774.559-3.6-7.406-3.717-19.662-.261-27.376 3.449-7.7 9.155-7.966 12.757-.596"/><path id="path4630" transform="matrix(.28684 0 0 .32341 547.61 -84.828)" d="M763.95-119.98c3.6 7.405 3.717 19.662.26 27.376-3.455 7.714-9.175 7.964-12.774.559-3.6-7.406-3.717-19.662-.261-27.376 3.449-7.7 9.155-7.966 12.757-.596"/><path id="path4632" transform="matrix(.28684 0 0 .32341 541.19 -56.798)" d="M763.95-119.98c3.6 7.405 3.717 19.662.26 27.376-3.455 7.714-9.175 7.964-12.774.559-3.6-7.406-3.717-19.662-.261-27.376 3.449-7.7 9.155-7.966 12.757-.596"/><path id="path4634" transform="matrix(.28684 0 0 .32341 558.86 -56.798)" d="M763.95-119.98c3.6 7.405 3.717 19.662.26 27.376-3.455 7.714-9.175 7.964-12.774.559-3.6-7.406-3.717-19.662-.261-27.376 3.449-7.7 9.155-7.966 12.757-.596"/><path id="path4636" transform="matrix(.28684 0 0 .32341 550.83 -43.862)" d="M763.95-119.98c3.6 7.405 3.717 19.662.26 27.376-3.455 7.714-9.175 7.964-12.774.559-3.6-7.406-3.717-19.662-.261-27.376 3.449-7.7 9.155-7.966 12.757-.596"/><path id="path4638" transform="matrix(.28684 0 0 .32341 528.34 -43.862)" d="M763.95-119.98c3.6 7.405 3.717 19.662.26 27.376-3.455 7.714-9.175 7.964-12.774.559-3.6-7.406-3.717-19.662-.261-27.376 3.449-7.7 9.155-7.966 12.757-.596"/><path id="path4640" transform="matrix(.28684 0 0 .32341 521.91 -56.798)" d="M763.95-119.98c3.6 7.405 3.717 19.662.26 27.376-3.455 7.714-9.175 7.964-12.774.559-3.6-7.406-3.717-19.662-.261-27.376 3.449-7.7 9.155-7.966 12.757-.596"/></g><g id="g4642" opacity=".088" stroke-width="0" fill="#9ade00" transform="translate(-429.4 332.92)"><path id="path4644" transform="matrix(.28684 0 0 .32341 531.55 -84.828)" d="M763.95-119.98c3.6 7.405 3.717 19.662.26 27.376-3.455 7.714-9.175 7.964-12.774.559-3.6-7.406-3.717-19.662-.261-27.376 3.449-7.7 9.155-7.966 12.757-.596"/><path id="path4646" transform="matrix(.28684 0 0 .32341 547.61 -84.828)" d="M763.95-119.98c3.6 7.405 3.717 19.662.26 27.376-3.455 7.714-9.175 7.964-12.774.559-3.6-7.406-3.717-19.662-.261-27.376 3.449-7.7 9.155-7.966 12.757-.596"/><path id="path4648" transform="matrix(.28684 0 0 .32341 541.19 -56.798)" d="M763.95-119.98c3.6 7.405 3.717 19.662.26 27.376-3.455 7.714-9.175 7.964-12.774.559-3.6-7.406-3.717-19.662-.261-27.376 3.449-7.7 9.155-7.966 12.757-.596"/><path id="path4650" transform="matrix(.28684 0 0 .32341 558.86 -56.798)" d="M763.95-119.98c3.6 7.405 3.717 19.662.26 27.376-3.455 7.714-9.175 7.964-12.774.559-3.6-7.406-3.717-19.662-.261-27.376 3.449-7.7 9.155-7.966 12.757-.596"/><path id="path4652" transform="matrix(.28684 0 0 .32341 550.83 -43.862)" d="M763.95-119.98c3.6 7.405 3.717 19.662.26 27.376-3.455 7.714-9.175 7.964-12.774.559-3.6-7.406-3.717-19.662-.261-27.376 3.449-7.7 9.155-7.966 12.757-.596"/><path id="path4654" transform="matrix(.28684 0 0 .32341 528.34 -43.862)" d="M763.95-119.98c3.6 7.405 3.717 19.662.26 27.376-3.455 7.714-9.175 7.964-12.774.559-3.6-7.406-3.717-19.662-.261-27.376 3.449-7.7 9.155-7.966 12.757-.596"/><path id="path4656" transform="matrix(.28684 0 0 .32341 521.91 -56.798)" d="M763.95-119.98c3.6 7.405 3.717 19.662.26 27.376-3.455 7.714-9.175 7.964-12.774.559-3.6-7.406-3.717-19.662-.261-27.376 3.449-7.7 9.155-7.966 12.757-.596"/></g><g id="g4658" opacity=".088" stroke-width="0" fill="#9ade00" transform="translate(-469.4 332.92)"><path id="path4660" transform="matrix(.28684 0 0 .32341 531.55 -84.828)" d="M763.95-119.98c3.6 7.405 3.717 19.662.26 27.376-3.455 7.714-9.175 7.964-12.774.559-3.6-7.406-3.717-19.662-.261-27.376 3.449-7.7 9.155-7.966 12.757-.596"/><path id="path4662" transform="matrix(.28684 0 0 .32341 547.61 -84.828)" d="M763.95-119.98c3.6 7.405 3.717 19.662.26 27.376-3.455 7.714-9.175 7.964-12.774.559-3.6-7.406-3.717-19.662-.261-27.376 3.449-7.7 9.155-7.966 12.757-.596"/><path id="path4664" transform="matrix(.28684 0 0 .32341 541.19 -56.798)" d="M763.95-119.98c3.6 7.405 3.717 19.662.26 27.376-3.455 7.714-9.175 7.964-12.774.559-3.6-7.406-3.717-19.662-.261-27.376 3.449-7.7 9.155-7.966 12.757-.596"/><path id="path4666" transform="matrix(.28684 0 0 .32341 558.86 -56.798)" d="M763.95-119.98c3.6 7.405 3.717 19.662.26 27.376-3.455 7.714-9.175 7.964-12.774.559-3.6-7.406-3.717-19.662-.261-27.376 3.449-7.7 9.155-7.966 12.757-.596"/><path id="path4668" transform="matrix(.28684 0 0 .32341 550.83 -43.862)" d="M763.95-119.98c3.6 7.405 3.717 19.662.26 27.376-3.455 7.714-9.175 7.964-12.774.559-3.6-7.406-3.717-19.662-.261-27.376 3.449-7.7 9.155-7.966 12.757-.596"/><path id="path4670" transform="matrix(.28684 0 0 .32341 528.34 -43.862)" d="M763.95-119.98c3.6 7.405 3.717 19.662.26 27.376-3.455 7.714-9.175 7.964-12.774.559-3.6-7.406-3.717-19.662-.261-27.376 3.449-7.7 9.155-7.966 12.757-.596"/><path id="path4672" transform="matrix(.28684 0 0 .32341 521.91 -56.798)" d="M763.95-119.98c3.6 7.405 3.717 19.662.26 27.376-3.455 7.714-9.175 7.964-12.774.559-3.6-7.406-3.717-19.662-.261-27.376 3.449-7.7 9.155-7.966 12.757-.596"/></g><g id="g4674" opacity=".088" stroke-width="0" fill="#9ade00" transform="matrix(.5 0 0 .5 -33.016 101.15)"><path id="path4676" transform="matrix(.28684 0 0 .32341 531.55 -84.828)" d="M763.95-119.98c3.6 7.405 3.717 19.662.26 27.376-3.455 7.714-9.175 7.964-12.774.559-3.6-7.406-3.717-19.662-.261-27.376 3.449-7.7 9.155-7.966 12.757-.596"/><path id="path4678" transform="matrix(.28684 0 0 .32341 547.61 -84.828)" d="M763.95-119.98c3.6 7.405 3.717 19.662.26 27.376-3.455 7.714-9.175 7.964-12.774.559-3.6-7.406-3.717-19.662-.261-27.376 3.449-7.7 9.155-7.966 12.757-.596"/><path id="path4680" transform="matrix(.28684 0 0 .32341 541.19 -56.798)" d="M763.95-119.98c3.6 7.405 3.717 19.662.26 27.376-3.455 7.714-9.175 7.964-12.774.559-3.6-7.406-3.717-19.662-.261-27.376 3.449-7.7 9.155-7.966 12.757-.596"/><path id="path4682" transform="matrix(.28684 0 0 .32341 558.86 -56.798)" d="M763.95-119.98c3.6 7.405 3.717 19.662.26 27.376-3.455 7.714-9.175 7.964-12.774.559-3.6-7.406-3.717-19.662-.261-27.376 3.449-7.7 9.155-7.966 12.757-.596"/><path id="path4684" transform="matrix(.28684 0 0 .32341 550.83 -43.862)" d="M763.95-119.98c3.6 7.405 3.717 19.662.26 27.376-3.455 7.714-9.175 7.964-12.774.559-3.6-7.406-3.717-19.662-.261-27.376 3.449-7.7 9.155-7.966 12.757-.596"/><path id="path4686" transform="matrix(.28684 0 0 .32341 528.34 -43.862)" d="M763.95-119.98c3.6 7.405 3.717 19.662.26 27.376-3.455 7.714-9.175 7.964-12.774.559-3.6-7.406-3.717-19.662-.261-27.376 3.449-7.7 9.155-7.966 12.757-.596"/><path id="path4688" transform="matrix(.28684 0 0 .32341 521.91 -56.798)" d="M763.95-119.98c3.6 7.405 3.717 19.662.26 27.376-3.455 7.714-9.175 7.964-12.774.559-3.6-7.406-3.717-19.662-.261-27.376 3.449-7.7 9.155-7.966 12.757-.596"/></g><g id="g4690" opacity=".088" stroke-width="0" fill="#804d00" transform="matrix(.5 0 0 .5 -100.14 75.023)"><path id="path4692" transform="matrix(.28684 0 0 .32341 531.55 -84.828)" d="M763.95-119.98c3.6 7.405 3.717 19.662.26 27.376-3.455 7.714-9.175 7.964-12.774.559-3.6-7.406-3.717-19.662-.261-27.376 3.449-7.7 9.155-7.966 12.757-.596"/><path id="path4694" transform="matrix(.28684 0 0 .32341 547.61 -84.828)" d="M763.95-119.98c3.6 7.405 3.717 19.662.26 27.376-3.455 7.714-9.175 7.964-12.774.559-3.6-7.406-3.717-19.662-.261-27.376 3.449-7.7 9.155-7.966 12.757-.596"/><path id="path4696" transform="matrix(.28684 0 0 .32341 541.19 -56.798)" d="M763.95-119.98c3.6 7.405 3.717 19.662.26 27.376-3.455 7.714-9.175 7.964-12.774.559-3.6-7.406-3.717-19.662-.261-27.376 3.449-7.7 9.155-7.966 12.757-.596"/><path id="path4698" transform="matrix(.28684 0 0 .32341 558.86 -56.798)" d="M763.95-119.98c3.6 7.405 3.717 19.662.26 27.376-3.455 7.714-9.175 7.964-12.774.559-3.6-7.406-3.717-19.662-.261-27.376 3.449-7.7 9.155-7.966 12.757-.596"/><path id="path4700" transform="matrix(.28684 0 0 .32341 550.83 -43.862)" d="M763.95-119.98c3.6 7.405 3.717 19.662.26 27.376-3.455 7.714-9.175 7.964-12.774.559-3.6-7.406-3.717-19.662-.261-27.376 3.449-7.7 9.155-7.966 12.757-.596"/><path id="path4702" transform="matrix(.28684 0 0 .32341 528.34 -43.862)" d="M763.95-119.98c3.6 7.405 3.717 19.662.26 27.376-3.455 7.714-9.175 7.964-12.774.559-3.6-7.406-3.717-19.662-.261-27.376 3.449-7.7 9.155-7.966 12.757-.596"/><path id="path4704" transform="matrix(.28684 0 0 .32341 521.91 -56.798)" d="M763.95-119.98c3.6 7.405 3.717 19.662.26 27.376-3.455 7.714-9.175 7.964-12.774.559-3.6-7.406-3.717-19.662-.261-27.376 3.449-7.7 9.155-7.966 12.757-.596"/></g><g id="g4706" opacity=".088" stroke-width="0" fill="#b88100" transform="matrix(.5 0 0 .5 -58.527 38.236)"><path id="path4708" transform="matrix(.28684 0 0 .32341 531.55 -84.828)" d="M763.95-119.98c3.6 7.405 3.717 19.662.26 27.376-3.455 7.714-9.175 7.964-12.774.559-3.6-7.406-3.717-19.662-.261-27.376 3.449-7.7 9.155-7.966 12.757-.596"/><path id="path4710" transform="matrix(.28684 0 0 .32341 547.61 -84.828)" d="M763.95-119.98c3.6 7.405 3.717 19.662.26 27.376-3.455 7.714-9.175 7.964-12.774.559-3.6-7.406-3.717-19.662-.261-27.376 3.449-7.7 9.155-7.966 12.757-.596"/><path id="path4712" transform="matrix(.28684 0 0 .32341 541.19 -56.798)" d="M763.95-119.98c3.6 7.405 3.717 19.662.26 27.376-3.455 7.714-9.175 7.964-12.774.559-3.6-7.406-3.717-19.662-.261-27.376 3.449-7.7 9.155-7.966 12.757-.596"/><path id="path4714" transform="matrix(.28684 0 0 .32341 558.86 -56.798)" d="M763.95-119.98c3.6 7.405 3.717 19.662.26 27.376-3.455 7.714-9.175 7.964-12.774.559-3.6-7.406-3.717-19.662-.261-27.376 3.449-7.7 9.155-7.966 12.757-.596"/><path id="path4716" transform="matrix(.28684 0 0 .32341 550.83 -43.862)" d="M763.95-119.98c3.6 7.405 3.717 19.662.26 27.376-3.455 7.714-9.175 7.964-12.774.559-3.6-7.406-3.717-19.662-.261-27.376 3.449-7.7 9.155-7.966 12.757-.596"/><path id="path4718" transform="matrix(.28684 0 0 .32341 528.34 -43.862)" d="M763.95-119.98c3.6 7.405 3.717 19.662.26 27.376-3.455 7.714-9.175 7.964-12.774.559-3.6-7.406-3.717-19.662-.261-27.376 3.449-7.7 9.155-7.966 12.757-.596"/><path id="path4720" transform="matrix(.28684 0 0 .32341 521.91 -56.798)" d="M763.95-119.98c3.6 7.405 3.717 19.662.26 27.376-3.455 7.714-9.175 7.964-12.774.559-3.6-7.406-3.717-19.662-.261-27.376 3.449-7.7 9.155-7.966 12.757-.596"/></g><g id="g4738" opacity=".044" stroke-width="0" fill="#804d00" transform="translate(-486.15 517.46)"><path id="path4740" transform="matrix(.28684 0 0 .32341 531.55 -84.828)" d="M763.95-119.98c3.6 7.405 3.717 19.662.26 27.376-3.455 7.714-9.175 7.964-12.774.559-3.6-7.406-3.717-19.662-.261-27.376 3.449-7.7 9.155-7.966 12.757-.596"/><path id="path4742" transform="matrix(.28684 0 0 .32341 547.61 -84.828)" d="M763.95-119.98c3.6 7.405 3.717 19.662.26 27.376-3.455 7.714-9.175 7.964-12.774.559-3.6-7.406-3.717-19.662-.261-27.376 3.449-7.7 9.155-7.966 12.757-.596"/><path id="path4744" transform="matrix(.28684 0 0 .32341 541.19 -56.798)" d="M763.95-119.98c3.6 7.405 3.717 19.662.26 27.376-3.455 7.714-9.175 7.964-12.774.559-3.6-7.406-3.717-19.662-.261-27.376 3.449-7.7 9.155-7.966 12.757-.596"/><path id="path4746" transform="matrix(.28684 0 0 .32341 558.86 -56.798)" d="M763.95-119.98c3.6 7.405 3.717 19.662.26 27.376-3.455 7.714-9.175 7.964-12.774.559-3.6-7.406-3.717-19.662-.261-27.376 3.449-7.7 9.155-7.966 12.757-.596"/><path id="path4748" transform="matrix(.28684 0 0 .32341 550.83 -43.862)" d="M763.95-119.98c3.6 7.405 3.717 19.662.26 27.376-3.455 7.714-9.175 7.964-12.774.559-3.6-7.406-3.717-19.662-.261-27.376 3.449-7.7 9.155-7.966 12.757-.596"/><path id="path4750" transform="matrix(.28684 0 0 .32341 528.34 -43.862)" d="M763.95-119.98c3.6 7.405 3.717 19.662.26 27.376-3.455 7.714-9.175 7.964-12.774.559-3.6-7.406-3.717-19.662-.261-27.376 3.449-7.7 9.155-7.966 12.757-.596"/><path id="path4752" transform="matrix(.28684 0 0 .32341 521.91 -56.798)" d="M763.95-119.98c3.6 7.405 3.717 19.662.26 27.376-3.455 7.714-9.175 7.964-12.774.559-3.6-7.406-3.717-19.662-.261-27.376 3.449-7.7 9.155-7.966 12.757-.596"/></g><g id="g4754" opacity=".088" stroke-width="0" fill="#9ade00" transform="translate(-526.15 517.46)"><path id="path4756" transform="matrix(.28684 0 0 .32341 531.55 -84.828)" d="M763.95-119.98c3.6 7.405 3.717 19.662.26 27.376-3.455 7.714-9.175 7.964-12.774.559-3.6-7.406-3.717-19.662-.261-27.376 3.449-7.7 9.155-7.966 12.757-.596"/><path id="path4758" transform="matrix(.28684 0 0 .32341 547.61 -84.828)" d="M763.95-119.98c3.6 7.405 3.717 19.662.26 27.376-3.455 7.714-9.175 7.964-12.774.559-3.6-7.406-3.717-19.662-.261-27.376 3.449-7.7 9.155-7.966 12.757-.596"/><path id="path4760" transform="matrix(.28684 0 0 .32341 541.19 -56.798)" d="M763.95-119.98c3.6 7.405 3.717 19.662.26 27.376-3.455 7.714-9.175 7.964-12.774.559-3.6-7.406-3.717-19.662-.261-27.376 3.449-7.7 9.155-7.966 12.757-.596"/><path id="path4762" transform="matrix(.28684 0 0 .32341 558.86 -56.798)" d="M763.95-119.98c3.6 7.405 3.717 19.662.26 27.376-3.455 7.714-9.175 7.964-12.774.559-3.6-7.406-3.717-19.662-.261-27.376 3.449-7.7 9.155-7.966 12.757-.596"/><path id="path4764" transform="matrix(.28684 0 0 .32341 550.83 -43.862)" d="M763.95-119.98c3.6 7.405 3.717 19.662.26 27.376-3.455 7.714-9.175 7.964-12.774.559-3.6-7.406-3.717-19.662-.261-27.376 3.449-7.7 9.155-7.966 12.757-.596"/><path id="path4766" transform="matrix(.28684 0 0 .32341 528.34 -43.862)" d="M763.95-119.98c3.6 7.405 3.717 19.662.26 27.376-3.455 7.714-9.175 7.964-12.774.559-3.6-7.406-3.717-19.662-.261-27.376 3.449-7.7 9.155-7.966 12.757-.596"/><path id="path4768" transform="matrix(.28684 0 0 .32341 521.91 -56.798)" d="M763.95-119.98c3.6 7.405 3.717 19.662.26 27.376-3.455 7.714-9.175 7.964-12.774.559-3.6-7.406-3.717-19.662-.261-27.376 3.449-7.7 9.155-7.966 12.757-.596"/></g><g id="g4770" opacity=".088" transform="translate(-619.02 360.65)" filter="url('#filter5209')" stroke-width="0" fill="#f90"><path id="path4772" transform="matrix(.28684 0 0 .32341 531.55 -84.828)" d="M763.95-119.98c3.6 7.405 3.717 19.662.26 27.376-3.455 7.714-9.175 7.964-12.774.559-3.6-7.406-3.717-19.662-.261-27.376 3.449-7.7 9.155-7.966 12.757-.596"/><path id="path4774" transform="matrix(.28684 0 0 .32341 547.61 -84.828)" d="M763.95-119.98c3.6 7.405 3.717 19.662.26 27.376-3.455 7.714-9.175 7.964-12.774.559-3.6-7.406-3.717-19.662-.261-27.376 3.449-7.7 9.155-7.966 12.757-.596"/><path id="path4776" transform="matrix(.28684 0 0 .32341 541.19 -56.798)" d="M763.95-119.98c3.6 7.405 3.717 19.662.26 27.376-3.455 7.714-9.175 7.964-12.774.559-3.6-7.406-3.717-19.662-.261-27.376 3.449-7.7 9.155-7.966 12.757-.596"/><path id="path4778" transform="matrix(.28684 0 0 .32341 558.86 -56.798)" d="M763.95-119.98c3.6 7.405 3.717 19.662.26 27.376-3.455 7.714-9.175 7.964-12.774.559-3.6-7.406-3.717-19.662-.261-27.376 3.449-7.7 9.155-7.966 12.757-.596"/><path id="path4780" transform="matrix(.28684 0 0 .32341 550.83 -43.862)" d="M763.95-119.98c3.6 7.405 3.717 19.662.26 27.376-3.455 7.714-9.175 7.964-12.774.559-3.6-7.406-3.717-19.662-.261-27.376 3.449-7.7 9.155-7.966 12.757-.596"/><path id="path4782" transform="matrix(.28684 0 0 .32341 528.34 -43.862)" d="M763.95-119.98c3.6 7.405 3.717 19.662.26 27.376-3.455 7.714-9.175 7.964-12.774.559-3.6-7.406-3.717-19.662-.261-27.376 3.449-7.7 9.155-7.966 12.757-.596"/><path id="path4784" transform="matrix(.28684 0 0 .32341 521.91 -56.798)" d="M763.95-119.98c3.6 7.405 3.717 19.662.26 27.376-3.455 7.714-9.175 7.964-12.774.559-3.6-7.406-3.717-19.662-.261-27.376 3.449-7.7 9.155-7.966 12.757-.596"/></g><g id="g4786" opacity=".02" stroke-width="0" fill="#ffc022" transform="translate(-539 401.34)"><path id="path4788" transform="matrix(.28684 0 0 .32341 531.55 -84.828)" d="M763.95-119.98c3.6 7.405 3.717 19.662.26 27.376-3.455 7.714-9.175 7.964-12.774.559-3.6-7.406-3.717-19.662-.261-27.376 3.449-7.7 9.155-7.966 12.757-.596"/><path id="path4790" transform="matrix(.28684 0 0 .32341 547.61 -84.828)" d="M763.95-119.98c3.6 7.405 3.717 19.662.26 27.376-3.455 7.714-9.175 7.964-12.774.559-3.6-7.406-3.717-19.662-.261-27.376 3.449-7.7 9.155-7.966 12.757-.596"/><path id="path4792" transform="matrix(.28684 0 0 .32341 541.19 -56.798)" d="M763.95-119.98c3.6 7.405 3.717 19.662.26 27.376-3.455 7.714-9.175 7.964-12.774.559-3.6-7.406-3.717-19.662-.261-27.376 3.449-7.7 9.155-7.966 12.757-.596"/><path id="path4794" transform="matrix(.28684 0 0 .32341 558.86 -56.798)" d="M763.95-119.98c3.6 7.405 3.717 19.662.26 27.376-3.455 7.714-9.175 7.964-12.774.559-3.6-7.406-3.717-19.662-.261-27.376 3.449-7.7 9.155-7.966 12.757-.596"/><path id="path4796" transform="matrix(.28684 0 0 .32341 550.83 -43.862)" d="M763.95-119.98c3.6 7.405 3.717 19.662.26 27.376-3.455 7.714-9.175 7.964-12.774.559-3.6-7.406-3.717-19.662-.261-27.376 3.449-7.7 9.155-7.966 12.757-.596"/><path id="path4798" transform="matrix(.28684 0 0 .32341 528.34 -43.862)" d="M763.95-119.98c3.6 7.405 3.717 19.662.26 27.376-3.455 7.714-9.175 7.964-12.774.559-3.6-7.406-3.717-19.662-.261-27.376 3.449-7.7 9.155-7.966 12.757-.596"/><path id="path4800" transform="matrix(.28684 0 0 .32341 521.91 -56.798)" d="M763.95-119.98c3.6 7.405 3.717 19.662.26 27.376-3.455 7.714-9.175 7.964-12.774.559-3.6-7.406-3.717-19.662-.261-27.376 3.449-7.7 9.155-7.966 12.757-.596"/></g><g id="g4802" opacity=".088" stroke-width="0" fill="#ffc022" transform="translate(-427.37 372.94)"><path id="path4804" transform="matrix(.28684 0 0 .32341 531.55 -84.828)" d="M763.95-119.98c3.6 7.405 3.717 19.662.26 27.376-3.455 7.714-9.175 7.964-12.774.559-3.6-7.406-3.717-19.662-.261-27.376 3.449-7.7 9.155-7.966 12.757-.596"/><path id="path4806" transform="matrix(.28684 0 0 .32341 547.61 -84.828)" d="M763.95-119.98c3.6 7.405 3.717 19.662.26 27.376-3.455 7.714-9.175 7.964-12.774.559-3.6-7.406-3.717-19.662-.261-27.376 3.449-7.7 9.155-7.966 12.757-.596"/><path id="path4808" transform="matrix(.28684 0 0 .32341 541.19 -56.798)" d="M763.95-119.98c3.6 7.405 3.717 19.662.26 27.376-3.455 7.714-9.175 7.964-12.774.559-3.6-7.406-3.717-19.662-.261-27.376 3.449-7.7 9.155-7.966 12.757-.596"/><path id="path4810" transform="matrix(.28684 0 0 .32341 558.86 -56.798)" d="M763.95-119.98c3.6 7.405 3.717 19.662.26 27.376-3.455 7.714-9.175 7.964-12.774.559-3.6-7.406-3.717-19.662-.261-27.376 3.449-7.7 9.155-7.966 12.757-.596"/><path id="path4812" transform="matrix(.28684 0 0 .32341 550.83 -43.862)" d="M763.95-119.98c3.6 7.405 3.717 19.662.26 27.376-3.455 7.714-9.175 7.964-12.774.559-3.6-7.406-3.717-19.662-.261-27.376 3.449-7.7 9.155-7.966 12.757-.596"/><path id="path4814" transform="matrix(.28684 0 0 .32341 528.34 -43.862)" d="M763.95-119.98c3.6 7.405 3.717 19.662.26 27.376-3.455 7.714-9.175 7.964-12.774.559-3.6-7.406-3.717-19.662-.261-27.376 3.449-7.7 9.155-7.966 12.757-.596"/><path id="path4816" transform="matrix(.28684 0 0 .32341 521.91 -56.798)" d="M763.95-119.98c3.6 7.405 3.717 19.662.26 27.376-3.455 7.714-9.175 7.964-12.774.559-3.6-7.406-3.717-19.662-.261-27.376 3.449-7.7 9.155-7.966 12.757-.596"/></g><path id="path4828" opacity=".132" stroke-width="0" fill="#0e232e" d="M230.15 40.246c-1.442-9.203-.417-19.788 3.035-26.963 4.757-9.885 12.318-9.553 16.884.743 2.059 4.642 3.163 10.517 3.313 16.475-.544-3.5-1.454-6.8-2.714-9.641-4.567-10.296-12.113-10.648-16.87-.764-2.621 5.447-3.842 12.87-3.649 20.15z"/><path id="path4818" opacity=".488" d="M135.34-254.89c10.285 13.576 10.619 36.047.745 50.189-9.874 14.142-26.216 14.601-36.501 1.024-10.285-13.576-10.62-36.047-.745-50.189 9.854-14.114 26.157-14.603 36.449-1.092" transform="matrix(.43911 0 0 .50242 189.32 146.25)" filter="url('#filter4855')" stroke-width="0" fill="url('#radialGradient15008')"/><path id="path4859" opacity=".595" d="M380.28-79.511c2.314 2.715 2.39 7.21.168 10.038-2.222 2.828-5.899 2.92-8.213.205-2.314-2.715-2.39-7.21-.168-10.038 2.217-2.823 5.885-2.92 8.201-.219" transform="matrix(-.57709 0 0 .39449 455.3 67.413)" filter="url('#filter4869')" stroke-width="0" fill="#fff"/><g id="g4875" opacity=".088" stroke-width="0" fill="#b88100" transform="matrix(.93397 0 0 1.5519 -190.91 407.59)"><path id="path4877" transform="matrix(.28684 0 0 .32341 531.55 -84.828)" d="M763.95-119.98c3.6 7.405 3.717 19.662.26 27.376-3.455 7.714-9.175 7.964-12.774.559-3.6-7.406-3.717-19.662-.261-27.376 3.449-7.7 9.155-7.966 12.757-.596"/><path id="path4879" transform="matrix(.28684 0 0 .32341 547.61 -84.828)" d="M763.95-119.98c3.6 7.405 3.717 19.662.26 27.376-3.455 7.714-9.175 7.964-12.774.559-3.6-7.406-3.717-19.662-.261-27.376 3.449-7.7 9.155-7.966 12.757-.596"/><path id="path4881" transform="matrix(.28684 0 0 .32341 541.19 -56.798)" d="M763.95-119.98c3.6 7.405 3.717 19.662.26 27.376-3.455 7.714-9.175 7.964-12.774.559-3.6-7.406-3.717-19.662-.261-27.376 3.449-7.7 9.155-7.966 12.757-.596"/><path id="path4883" transform="matrix(.28684 0 0 .32341 558.86 -56.798)" d="M763.95-119.98c3.6 7.405 3.717 19.662.26 27.376-3.455 7.714-9.175 7.964-12.774.559-3.6-7.406-3.717-19.662-.261-27.376 3.449-7.7 9.155-7.966 12.757-.596"/><path id="path4885" transform="matrix(.28684 0 0 .32341 550.83 -43.862)" d="M763.95-119.98c3.6 7.405 3.717 19.662.26 27.376-3.455 7.714-9.175 7.964-12.774.559-3.6-7.406-3.717-19.662-.261-27.376 3.449-7.7 9.155-7.966 12.757-.596"/><path id="path4887" transform="matrix(.28684 0 0 .32341 528.34 -43.862)" d="M763.95-119.98c3.6 7.405 3.717 19.662.26 27.376-3.455 7.714-9.175 7.964-12.774.559-3.6-7.406-3.717-19.662-.261-27.376 3.449-7.7 9.155-7.966 12.757-.596"/><path id="path4889" transform="matrix(.28684 0 0 .32341 521.91 -56.798)" d="M763.95-119.98c3.6 7.405 3.717 19.662.26 27.376-3.455 7.714-9.175 7.964-12.774.559-3.6-7.406-3.717-19.662-.261-27.376 3.449-7.7 9.155-7.966 12.757-.596"/></g><path id="path4907" opacity=".132" stroke-width="0" fill="#0e232e" d="M290.17 1.923c-.881-6.007-.255-12.917 1.855-17.601 2.906-6.453 7.526-6.236 10.317.485 1.258 3.03 1.932 6.865 2.024 10.754-.332-2.285-.889-4.44-1.659-6.294-2.79-6.72-7.401-6.95-10.308-.498-1.601 3.555-2.347 8.4-2.229 13.153z"/><path id="path4909" opacity=".488" d="M135.34-254.89c10.285 13.576 10.619 36.047.745 50.189-9.874 14.142-26.216 14.601-36.501 1.024-10.285-13.576-10.62-36.047-.745-50.189 9.854-14.114 26.157-14.603 36.449-1.092" transform="matrix(.26831 0 0 .32797 265.22 71.121)" filter="url('#filter4855')" stroke-width="0" fill="url('#radialGradient15008')"/><path id="path4911" opacity=".595" d="M380.28-79.511c2.314 2.715 2.39 7.21.168 10.038-2.222 2.828-5.899 2.92-8.213.205-2.314-2.715-2.39-7.21-.168-10.038 2.217-2.823 5.885-2.92 8.201-.219" transform="matrix(-.35261 0 0 .25752 427.74 19.657)" filter="url('#filter4869')" stroke-width="0" fill="#fff"/><path id="path4913" opacity=".132" stroke-width="0" fill="#0e232e" d="M290.12-3.133c-.762 3.526-.22 7.58 1.604 10.328 2.513 3.787 6.509 3.66 8.922-.284 1.087-1.778 1.67-4.03 1.75-6.311-.287 1.34-.769 2.605-1.434 3.693-2.413 3.944-6.4 4.079-8.914.293-1.385-2.087-2.03-4.93-1.928-7.72z"/><path id="path4917" opacity=".132" stroke-width="0" fill="#0e232e" d="M252.74 2.568c-.881-6.007-.255-12.917 1.855-17.6 2.906-6.453 7.526-6.237 10.317.484 1.258 3.03 1.932 6.866 2.024 10.754-.332-2.285-.889-4.439-1.659-6.293-2.79-6.722-7.401-6.951-10.308-.499-1.601 3.556-2.347 8.4-2.229 13.153z"/><path id="path4919" opacity=".488" d="M135.34-254.89c10.285 13.576 10.619 36.047.745 50.189-9.874 14.142-26.216 14.601-36.501 1.024-10.285-13.576-10.62-36.047-.745-50.189 9.854-14.114 26.157-14.603 36.449-1.092" transform="matrix(.26831 0 0 .32797 227.79 71.767)" filter="url('#filter4855')" stroke-width="0" fill="url('#radialGradient15008')"/><path id="path4921" opacity=".595" d="M380.28-79.511c2.314 2.715 2.39 7.21.168 10.038-2.222 2.828-5.899 2.92-8.213.205-2.314-2.715-2.39-7.21-.168-10.038 2.217-2.823 5.885-2.92 8.201-.219" transform="matrix(-.35261 0 0 .25752 390.31 20.302)" filter="url('#filter4869')" stroke-width="0" fill="#fff"/><g id="g4927" opacity=".088" stroke-width="0" fill="#b88100" transform="matrix(.46698 0 0 .77594 -80.972 313.05)"><path id="path4929" transform="matrix(.28684 0 0 .32341 531.55 -84.828)" d="M763.95-119.98c3.6 7.405 3.717 19.662.26 27.376-3.455 7.714-9.175 7.964-12.774.559-3.6-7.406-3.717-19.662-.261-27.376 3.449-7.7 9.155-7.966 12.757-.596"/><path id="path4931" transform="matrix(.28684 0 0 .32341 547.61 -84.828)" d="M763.95-119.98c3.6 7.405 3.717 19.662.26 27.376-3.455 7.714-9.175 7.964-12.774.559-3.6-7.406-3.717-19.662-.261-27.376 3.449-7.7 9.155-7.966 12.757-.596"/><path id="path4933" transform="matrix(.28684 0 0 .32341 541.19 -56.798)" d="M763.95-119.98c3.6 7.405 3.717 19.662.26 27.376-3.455 7.714-9.175 7.964-12.774.559-3.6-7.406-3.717-19.662-.261-27.376 3.449-7.7 9.155-7.966 12.757-.596"/><path id="path4935" transform="matrix(.28684 0 0 .32341 558.86 -56.798)" d="M763.95-119.98c3.6 7.405 3.717 19.662.26 27.376-3.455 7.714-9.175 7.964-12.774.559-3.6-7.406-3.717-19.662-.261-27.376 3.449-7.7 9.155-7.966 12.757-.596"/><path id="path4937" transform="matrix(.28684 0 0 .32341 550.83 -43.862)" d="M763.95-119.98c3.6 7.405 3.717 19.662.26 27.376-3.455 7.714-9.175 7.964-12.774.559-3.6-7.406-3.717-19.662-.261-27.376 3.449-7.7 9.155-7.966 12.757-.596"/><path id="path4939" transform="matrix(.28684 0 0 .32341 528.34 -43.862)" d="M763.95-119.98c3.6 7.405 3.717 19.662.26 27.376-3.455 7.714-9.175 7.964-12.774.559-3.6-7.406-3.717-19.662-.261-27.376 3.449-7.7 9.155-7.966 12.757-.596"/><path id="path4941" transform="matrix(.28684 0 0 .32341 521.91 -56.798)" d="M763.95-119.98c3.6 7.405 3.717 19.662.26 27.376-3.455 7.714-9.175 7.964-12.774.559-3.6-7.406-3.717-19.662-.261-27.376 3.449-7.7 9.155-7.966 12.757-.596"/></g><g id="g4943" opacity=".088" stroke-width="0" fill="#f60" transform="matrix(.5 0 0 .5 -103.38 314.46)"><path id="path4945" transform="matrix(.28684 0 0 .32341 531.55 -84.828)" d="M763.95-119.98c3.6 7.405 3.717 19.662.26 27.376-3.455 7.714-9.175 7.964-12.774.559-3.6-7.406-3.717-19.662-.261-27.376 3.449-7.7 9.155-7.966 12.757-.596"/><path id="path4947" transform="matrix(.28684 0 0 .32341 547.61 -84.828)" d="M763.95-119.98c3.6 7.405 3.717 19.662.26 27.376-3.455 7.714-9.175 7.964-12.774.559-3.6-7.406-3.717-19.662-.261-27.376 3.449-7.7 9.155-7.966 12.757-.596"/><path id="path4949" transform="matrix(.28684 0 0 .32341 541.19 -56.798)" d="M763.95-119.98c3.6 7.405 3.717 19.662.26 27.376-3.455 7.714-9.175 7.964-12.774.559-3.6-7.406-3.717-19.662-.261-27.376 3.449-7.7 9.155-7.966 12.757-.596"/><path id="path4951" transform="matrix(.28684 0 0 .32341 558.86 -56.798)" d="M763.95-119.98c3.6 7.405 3.717 19.662.26 27.376-3.455 7.714-9.175 7.964-12.774.559-3.6-7.406-3.717-19.662-.261-27.376 3.449-7.7 9.155-7.966 12.757-.596"/><path id="path4953" transform="matrix(.28684 0 0 .32341 550.83 -43.862)" d="M763.95-119.98c3.6 7.405 3.717 19.662.26 27.376-3.455 7.714-9.175 7.964-12.774.559-3.6-7.406-3.717-19.662-.261-27.376 3.449-7.7 9.155-7.966 12.757-.596"/><path id="path4955" transform="matrix(.28684 0 0 .32341 528.34 -43.862)" d="M763.95-119.98c3.6 7.405 3.717 19.662.26 27.376-3.455 7.714-9.175 7.964-12.774.559-3.6-7.406-3.717-19.662-.261-27.376 3.449-7.7 9.155-7.966 12.757-.596"/><path id="path4957" transform="matrix(.28684 0 0 .32341 521.91 -56.798)" d="M763.95-119.98c3.6 7.405 3.717 19.662.26 27.376-3.455 7.714-9.175 7.964-12.774.559-3.6-7.406-3.717-19.662-.261-27.376 3.449-7.7 9.155-7.966 12.757-.596"/></g><g id="g4959" opacity=".088" stroke-width="0" fill="#f60" transform="matrix(.5 0 0 .5 -123.38 314.46)"><path id="path4961" transform="matrix(.28684 0 0 .32341 531.55 -84.828)" d="M763.95-119.98c3.6 7.405 3.717 19.662.26 27.376-3.455 7.714-9.175 7.964-12.774.559-3.6-7.406-3.717-19.662-.261-27.376 3.449-7.7 9.155-7.966 12.757-.596"/><path id="path4963" transform="matrix(.28684 0 0 .32341 547.61 -84.828)" d="M763.95-119.98c3.6 7.405 3.717 19.662.26 27.376-3.455 7.714-9.175 7.964-12.774.559-3.6-7.406-3.717-19.662-.261-27.376 3.449-7.7 9.155-7.966 12.757-.596"/><path id="path4965" transform="matrix(.28684 0 0 .32341 541.19 -56.798)" d="M763.95-119.98c3.6 7.405 3.717 19.662.26 27.376-3.455 7.714-9.175 7.964-12.774.559-3.6-7.406-3.717-19.662-.261-27.376 3.449-7.7 9.155-7.966 12.757-.596"/><path id="path4967" transform="matrix(.28684 0 0 .32341 558.86 -56.798)" d="M763.95-119.98c3.6 7.405 3.717 19.662.26 27.376-3.455 7.714-9.175 7.964-12.774.559-3.6-7.406-3.717-19.662-.261-27.376 3.449-7.7 9.155-7.966 12.757-.596"/><path id="path4969" transform="matrix(.28684 0 0 .32341 550.83 -43.862)" d="M763.95-119.98c3.6 7.405 3.717 19.662.26 27.376-3.455 7.714-9.175 7.964-12.774.559-3.6-7.406-3.717-19.662-.261-27.376 3.449-7.7 9.155-7.966 12.757-.596"/><path id="path4971" transform="matrix(.28684 0 0 .32341 528.34 -43.862)" d="M763.95-119.98c3.6 7.405 3.717 19.662.26 27.376-3.455 7.714-9.175 7.964-12.774.559-3.6-7.406-3.717-19.662-.261-27.376 3.449-7.7 9.155-7.966 12.757-.596"/><path id="path4973" transform="matrix(.28684 0 0 .32341 521.91 -56.798)" d="M763.95-119.98c3.6 7.405 3.717 19.662.26 27.376-3.455 7.714-9.175 7.964-12.774.559-3.6-7.406-3.717-19.662-.261-27.376 3.449-7.7 9.155-7.966 12.757-.596"/></g><g id="g4975" opacity=".088" stroke-width="0" fill="#f60" transform="matrix(.46698 0 0 .77594 -108.06 322.36)"><path id="path4977" transform="matrix(.28684 0 0 .32341 531.55 -84.828)" d="M763.95-119.98c3.6 7.405 3.717 19.662.26 27.376-3.455 7.714-9.175 7.964-12.774.559-3.6-7.406-3.717-19.662-.261-27.376 3.449-7.7 9.155-7.966 12.757-.596"/><path id="path4979" transform="matrix(.28684 0 0 .32341 547.61 -84.828)" d="M763.95-119.98c3.6 7.405 3.717 19.662.26 27.376-3.455 7.714-9.175 7.964-12.774.559-3.6-7.406-3.717-19.662-.261-27.376 3.449-7.7 9.155-7.966 12.757-.596"/><path id="path4981" transform="matrix(.28684 0 0 .32341 541.19 -56.798)" d="M763.95-119.98c3.6 7.405 3.717 19.662.26 27.376-3.455 7.714-9.175 7.964-12.774.559-3.6-7.406-3.717-19.662-.261-27.376 3.449-7.7 9.155-7.966 12.757-.596"/><path id="path4983" transform="matrix(.28684 0 0 .32341 558.86 -56.798)" d="M763.95-119.98c3.6 7.405 3.717 19.662.26 27.376-3.455 7.714-9.175 7.964-12.774.559-3.6-7.406-3.717-19.662-.261-27.376 3.449-7.7 9.155-7.966 12.757-.596"/><path id="path4985" transform="matrix(.28684 0 0 .32341 550.83 -43.862)" d="M763.95-119.98c3.6 7.405 3.717 19.662.26 27.376-3.455 7.714-9.175 7.964-12.774.559-3.6-7.406-3.717-19.662-.261-27.376 3.449-7.7 9.155-7.966 12.757-.596"/><path id="path4987" transform="matrix(.28684 0 0 .32341 528.34 -43.862)" d="M763.95-119.98c3.6 7.405 3.717 19.662.26 27.376-3.455 7.714-9.175 7.964-12.774.559-3.6-7.406-3.717-19.662-.261-27.376 3.449-7.7 9.155-7.966 12.757-.596"/><path id="path4989" transform="matrix(.28684 0 0 .32341 521.91 -56.798)" d="M763.95-119.98c3.6 7.405 3.717 19.662.26 27.376-3.455 7.714-9.175 7.964-12.774.559-3.6-7.406-3.717-19.662-.261-27.376 3.449-7.7 9.155-7.966 12.757-.596"/></g><g id="g4991" opacity=".088" stroke-width="0" fill="#b88100" transform="matrix(.5 0 0 .5 -95.598 180.88)"><path id="path4993" transform="matrix(.28684 0 0 .32341 531.55 -84.828)" d="M763.95-119.98c3.6 7.405 3.717 19.662.26 27.376-3.455 7.714-9.175 7.964-12.774.559-3.6-7.406-3.717-19.662-.261-27.376 3.449-7.7 9.155-7.966 12.757-.596"/><path id="path4995" transform="matrix(.28684 0 0 .32341 547.61 -84.828)" d="M763.95-119.98c3.6 7.405 3.717 19.662.26 27.376-3.455 7.714-9.175 7.964-12.774.559-3.6-7.406-3.717-19.662-.261-27.376 3.449-7.7 9.155-7.966 12.757-.596"/><path id="path4997" transform="matrix(.28684 0 0 .32341 541.19 -56.798)" d="M763.95-119.98c3.6 7.405 3.717 19.662.26 27.376-3.455 7.714-9.175 7.964-12.774.559-3.6-7.406-3.717-19.662-.261-27.376 3.449-7.7 9.155-7.966 12.757-.596"/><path id="path4999" transform="matrix(.28684 0 0 .32341 558.86 -56.798)" d="M763.95-119.98c3.6 7.405 3.717 19.662.26 27.376-3.455 7.714-9.175 7.964-12.774.559-3.6-7.406-3.717-19.662-.261-27.376 3.449-7.7 9.155-7.966 12.757-.596"/><path id="path5001" transform="matrix(.28684 0 0 .32341 550.83 -43.862)" d="M763.95-119.98c3.6 7.405 3.717 19.662.26 27.376-3.455 7.714-9.175 7.964-12.774.559-3.6-7.406-3.717-19.662-.261-27.376 3.449-7.7 9.155-7.966 12.757-.596"/><path id="path5003" transform="matrix(.28684 0 0 .32341 528.34 -43.862)" d="M763.95-119.98c3.6 7.405 3.717 19.662.26 27.376-3.455 7.714-9.175 7.964-12.774.559-3.6-7.406-3.717-19.662-.261-27.376 3.449-7.7 9.155-7.966 12.757-.596"/><path id="path5005" transform="matrix(.28684 0 0 .32341 521.91 -56.798)" d="M763.95-119.98c3.6 7.405 3.717 19.662.26 27.376-3.455 7.714-9.175 7.964-12.774.559-3.6-7.406-3.717-19.662-.261-27.376 3.449-7.7 9.155-7.966 12.757-.596"/></g><g id="g5007" opacity=".088" stroke-width="0" fill="#b88100" transform="matrix(.5 0 0 .5 -65.598 180.88)"><path id="path5009" transform="matrix(.28684 0 0 .32341 531.55 -84.828)" d="M763.95-119.98c3.6 7.405 3.717 19.662.26 27.376-3.455 7.714-9.175 7.964-12.774.559-3.6-7.406-3.717-19.662-.261-27.376 3.449-7.7 9.155-7.966 12.757-.596"/><path id="path5011" transform="matrix(.28684 0 0 .32341 547.61 -84.828)" d="M763.95-119.98c3.6 7.405 3.717 19.662.26 27.376-3.455 7.714-9.175 7.964-12.774.559-3.6-7.406-3.717-19.662-.261-27.376 3.449-7.7 9.155-7.966 12.757-.596"/><path id="path5013" transform="matrix(.28684 0 0 .32341 541.19 -56.798)" d="M763.95-119.98c3.6 7.405 3.717 19.662.26 27.376-3.455 7.714-9.175 7.964-12.774.559-3.6-7.406-3.717-19.662-.261-27.376 3.449-7.7 9.155-7.966 12.757-.596"/><path id="path5015" transform="matrix(.28684 0 0 .32341 558.86 -56.798)" d="M763.95-119.98c3.6 7.405 3.717 19.662.26 27.376-3.455 7.714-9.175 7.964-12.774.559-3.6-7.406-3.717-19.662-.261-27.376 3.449-7.7 9.155-7.966 12.757-.596"/><path id="path5017" transform="matrix(.28684 0 0 .32341 550.83 -43.862)" d="M763.95-119.98c3.6 7.405 3.717 19.662.26 27.376-3.455 7.714-9.175 7.964-12.774.559-3.6-7.406-3.717-19.662-.261-27.376 3.449-7.7 9.155-7.966 12.757-.596"/><path id="path5019" transform="matrix(.28684 0 0 .32341 528.34 -43.862)" d="M763.95-119.98c3.6 7.405 3.717 19.662.26 27.376-3.455 7.714-9.175 7.964-12.774.559-3.6-7.406-3.717-19.662-.261-27.376 3.449-7.7 9.155-7.966 12.757-.596"/><path id="path5021" transform="matrix(.28684 0 0 .32341 521.91 -56.798)" d="M763.95-119.98c3.6 7.405 3.717 19.662.26 27.376-3.455 7.714-9.175 7.964-12.774.559-3.6-7.406-3.717-19.662-.261-27.376 3.449-7.7 9.155-7.966 12.757-.596"/></g><g id="g5023" opacity=".088" stroke-width="0" fill="#b88100" transform="matrix(.5 0 0 .5 -35.598 180.88)"><path id="path5025" transform="matrix(.28684 0 0 .32341 531.55 -84.828)" d="M763.95-119.98c3.6 7.405 3.717 19.662.26 27.376-3.455 7.714-9.175 7.964-12.774.559-3.6-7.406-3.717-19.662-.261-27.376 3.449-7.7 9.155-7.966 12.757-.596"/><path id="path5027" transform="matrix(.28684 0 0 .32341 547.61 -84.828)" d="M763.95-119.98c3.6 7.405 3.717 19.662.26 27.376-3.455 7.714-9.175 7.964-12.774.559-3.6-7.406-3.717-19.662-.261-27.376 3.449-7.7 9.155-7.966 12.757-.596"/><path id="path5029" transform="matrix(.28684 0 0 .32341 541.19 -56.798)" d="M763.95-119.98c3.6 7.405 3.717 19.662.26 27.376-3.455 7.714-9.175 7.964-12.774.559-3.6-7.406-3.717-19.662-.261-27.376 3.449-7.7 9.155-7.966 12.757-.596"/><path id="path5031" transform="matrix(.28684 0 0 .32341 558.86 -56.798)" d="M763.95-119.98c3.6 7.405 3.717 19.662.26 27.376-3.455 7.714-9.175 7.964-12.774.559-3.6-7.406-3.717-19.662-.261-27.376 3.449-7.7 9.155-7.966 12.757-.596"/><path id="path5033" transform="matrix(.28684 0 0 .32341 550.83 -43.862)" d="M763.95-119.98c3.6 7.405 3.717 19.662.26 27.376-3.455 7.714-9.175 7.964-12.774.559-3.6-7.406-3.717-19.662-.261-27.376 3.449-7.7 9.155-7.966 12.757-.596"/><path id="path5035" transform="matrix(.28684 0 0 .32341 528.34 -43.862)" d="M763.95-119.98c3.6 7.405 3.717 19.662.26 27.376-3.455 7.714-9.175 7.964-12.774.559-3.6-7.406-3.717-19.662-.261-27.376 3.449-7.7 9.155-7.966 12.757-.596"/><path id="path5037" transform="matrix(.28684 0 0 .32341 521.91 -56.798)" d="M763.95-119.98c3.6 7.405 3.717 19.662.26 27.376-3.455 7.714-9.175 7.964-12.774.559-3.6-7.406-3.717-19.662-.261-27.376 3.449-7.7 9.155-7.966 12.757-.596"/></g><g id="g5039" opacity=".088" stroke-width="0" fill="#b88100" transform="matrix(.5 0 0 .5 -19.463 177.43)"><path id="path5041" transform="matrix(.28684 0 0 .32341 531.55 -84.828)" d="M763.95-119.98c3.6 7.405 3.717 19.662.26 27.376-3.455 7.714-9.175 7.964-12.774.559-3.6-7.406-3.717-19.662-.261-27.376 3.449-7.7 9.155-7.966 12.757-.596"/><path id="path5043" transform="matrix(.28684 0 0 .32341 547.61 -84.828)" d="M763.95-119.98c3.6 7.405 3.717 19.662.26 27.376-3.455 7.714-9.175 7.964-12.774.559-3.6-7.406-3.717-19.662-.261-27.376 3.449-7.7 9.155-7.966 12.757-.596"/><path id="path5045" transform="matrix(.28684 0 0 .32341 541.19 -56.798)" d="M763.95-119.98c3.6 7.405 3.717 19.662.26 27.376-3.455 7.714-9.175 7.964-12.774.559-3.6-7.406-3.717-19.662-.261-27.376 3.449-7.7 9.155-7.966 12.757-.596"/><path id="path5047" transform="matrix(.28684 0 0 .32341 558.86 -56.798)" d="M763.95-119.98c3.6 7.405 3.717 19.662.26 27.376-3.455 7.714-9.175 7.964-12.774.559-3.6-7.406-3.717-19.662-.261-27.376 3.449-7.7 9.155-7.966 12.757-.596"/><path id="path5049" transform="matrix(.28684 0 0 .32341 550.83 -43.862)" d="M763.95-119.98c3.6 7.405 3.717 19.662.26 27.376-3.455 7.714-9.175 7.964-12.774.559-3.6-7.406-3.717-19.662-.261-27.376 3.449-7.7 9.155-7.966 12.757-.596"/><path id="path5051" transform="matrix(.28684 0 0 .32341 528.34 -43.862)" d="M763.95-119.98c3.6 7.405 3.717 19.662.26 27.376-3.455 7.714-9.175 7.964-12.774.559-3.6-7.406-3.717-19.662-.261-27.376 3.449-7.7 9.155-7.966 12.757-.596"/><path id="path5053" transform="matrix(.28684 0 0 .32341 521.91 -56.798)" d="M763.95-119.98c3.6 7.405 3.717 19.662.26 27.376-3.455 7.714-9.175 7.964-12.774.559-3.6-7.406-3.717-19.662-.261-27.376 3.449-7.7 9.155-7.966 12.757-.596"/></g><g id="g5055" opacity=".088" stroke-width="0" fill="#f60" transform="matrix(.5 0 0 .5 -112.38 324.46)"><path id="path5057" transform="matrix(.28684 0 0 .32341 531.55 -84.828)" d="M763.95-119.98c3.6 7.405 3.717 19.662.26 27.376-3.455 7.714-9.175 7.964-12.774.559-3.6-7.406-3.717-19.662-.261-27.376 3.449-7.7 9.155-7.966 12.757-.596"/><path id="path5059" transform="matrix(.28684 0 0 .32341 547.61 -84.828)" d="M763.95-119.98c3.6 7.405 3.717 19.662.26 27.376-3.455 7.714-9.175 7.964-12.774.559-3.6-7.406-3.717-19.662-.261-27.376 3.449-7.7 9.155-7.966 12.757-.596"/><path id="path5061" transform="matrix(.28684 0 0 .32341 541.19 -56.798)" d="M763.95-119.98c3.6 7.405 3.717 19.662.26 27.376-3.455 7.714-9.175 7.964-12.774.559-3.6-7.406-3.717-19.662-.261-27.376 3.449-7.7 9.155-7.966 12.757-.596"/><path id="path5063" transform="matrix(.28684 0 0 .32341 558.86 -56.798)" d="M763.95-119.98c3.6 7.405 3.717 19.662.26 27.376-3.455 7.714-9.175 7.964-12.774.559-3.6-7.406-3.717-19.662-.261-27.376 3.449-7.7 9.155-7.966 12.757-.596"/><path id="path5065" transform="matrix(.28684 0 0 .32341 550.83 -43.862)" d="M763.95-119.98c3.6 7.405 3.717 19.662.26 27.376-3.455 7.714-9.175 7.964-12.774.559-3.6-7.406-3.717-19.662-.261-27.376 3.449-7.7 9.155-7.966 12.757-.596"/><path id="path5067" transform="matrix(.28684 0 0 .32341 528.34 -43.862)" d="M763.95-119.98c3.6 7.405 3.717 19.662.26 27.376-3.455 7.714-9.175 7.964-12.774.559-3.6-7.406-3.717-19.662-.261-27.376 3.449-7.7 9.155-7.966 12.757-.596"/><path id="path5069" transform="matrix(.28684 0 0 .32341 521.91 -56.798)" d="M763.95-119.98c3.6 7.405 3.717 19.662.26 27.376-3.455 7.714-9.175 7.964-12.774.559-3.6-7.406-3.717-19.662-.261-27.376 3.449-7.7 9.155-7.966 12.757-.596"/></g><g id="g5071" opacity=".088" stroke-width="0" fill="#f60" transform="matrix(.5 0 0 .5 -82.378 324.46)"><path id="path5073" transform="matrix(.28684 0 0 .32341 531.55 -84.828)" d="M763.95-119.98c3.6 7.405 3.717 19.662.26 27.376-3.455 7.714-9.175 7.964-12.774.559-3.6-7.406-3.717-19.662-.261-27.376 3.449-7.7 9.155-7.966 12.757-.596"/><path id="path5075" transform="matrix(.28684 0 0 .32341 547.61 -84.828)" d="M763.95-119.98c3.6 7.405 3.717 19.662.26 27.376-3.455 7.714-9.175 7.964-12.774.559-3.6-7.406-3.717-19.662-.261-27.376 3.449-7.7 9.155-7.966 12.757-.596"/><path id="path5077" transform="matrix(.28684 0 0 .32341 541.19 -56.798)" d="M763.95-119.98c3.6 7.405 3.717 19.662.26 27.376-3.455 7.714-9.175 7.964-12.774.559-3.6-7.406-3.717-19.662-.261-27.376 3.449-7.7 9.155-7.966 12.757-.596"/><path id="path5079" transform="matrix(.28684 0 0 .32341 558.86 -56.798)" d="M763.95-119.98c3.6 7.405 3.717 19.662.26 27.376-3.455 7.714-9.175 7.964-12.774.559-3.6-7.406-3.717-19.662-.261-27.376 3.449-7.7 9.155-7.966 12.757-.596"/><path id="path5081" transform="matrix(.28684 0 0 .32341 550.83 -43.862)" d="M763.95-119.98c3.6 7.405 3.717 19.662.26 27.376-3.455 7.714-9.175 7.964-12.774.559-3.6-7.406-3.717-19.662-.261-27.376 3.449-7.7 9.155-7.966 12.757-.596"/><path id="path5083" transform="matrix(.28684 0 0 .32341 528.34 -43.862)" d="M763.95-119.98c3.6 7.405 3.717 19.662.26 27.376-3.455 7.714-9.175 7.964-12.774.559-3.6-7.406-3.717-19.662-.261-27.376 3.449-7.7 9.155-7.966 12.757-.596"/><path id="path5085" transform="matrix(.28684 0 0 .32341 521.91 -56.798)" d="M763.95-119.98c3.6 7.405 3.717 19.662.26 27.376-3.455 7.714-9.175 7.964-12.774.559-3.6-7.406-3.717-19.662-.261-27.376 3.449-7.7 9.155-7.966 12.757-.596"/></g><g id="g5087" opacity=".088" stroke-width="0" fill="#9ade00" transform="matrix(.5 0 0 .5 -72.378 324.46)"><path id="path5089" transform="matrix(.28684 0 0 .32341 531.55 -84.828)" d="M763.95-119.98c3.6 7.405 3.717 19.662.26 27.376-3.455 7.714-9.175 7.964-12.774.559-3.6-7.406-3.717-19.662-.261-27.376 3.449-7.7 9.155-7.966 12.757-.596"/><path id="path5091" transform="matrix(.28684 0 0 .32341 547.61 -84.828)" d="M763.95-119.98c3.6 7.405 3.717 19.662.26 27.376-3.455 7.714-9.175 7.964-12.774.559-3.6-7.406-3.717-19.662-.261-27.376 3.449-7.7 9.155-7.966 12.757-.596"/><path id="path5093" transform="matrix(.28684 0 0 .32341 541.19 -56.798)" d="M763.95-119.98c3.6 7.405 3.717 19.662.26 27.376-3.455 7.714-9.175 7.964-12.774.559-3.6-7.406-3.717-19.662-.261-27.376 3.449-7.7 9.155-7.966 12.757-.596"/><path id="path5095" transform="matrix(.28684 0 0 .32341 558.86 -56.798)" d="M763.95-119.98c3.6 7.405 3.717 19.662.26 27.376-3.455 7.714-9.175 7.964-12.774.559-3.6-7.406-3.717-19.662-.261-27.376 3.449-7.7 9.155-7.966 12.757-.596"/><path id="path5097" transform="matrix(.28684 0 0 .32341 550.83 -43.862)" d="M763.95-119.98c3.6 7.405 3.717 19.662.26 27.376-3.455 7.714-9.175 7.964-12.774.559-3.6-7.406-3.717-19.662-.261-27.376 3.449-7.7 9.155-7.966 12.757-.596"/><path id="path5099" transform="matrix(.28684 0 0 .32341 528.34 -43.862)" d="M763.95-119.98c3.6 7.405 3.717 19.662.26 27.376-3.455 7.714-9.175 7.964-12.774.559-3.6-7.406-3.717-19.662-.261-27.376 3.449-7.7 9.155-7.966 12.757-.596"/><path id="path5101" transform="matrix(.28684 0 0 .32341 521.91 -56.798)" d="M763.95-119.98c3.6 7.405 3.717 19.662.26 27.376-3.455 7.714-9.175 7.964-12.774.559-3.6-7.406-3.717-19.662-.261-27.376 3.449-7.7 9.155-7.966 12.757-.596"/></g><g id="g5103" opacity=".088" stroke-width="0" fill="#9ade00" transform="matrix(.5 0 0 .5 -26.243 312.19)"><path id="path5105" transform="matrix(.28684 0 0 .32341 531.55 -84.828)" d="M763.95-119.98c3.6 7.405 3.717 19.662.26 27.376-3.455 7.714-9.175 7.964-12.774.559-3.6-7.406-3.717-19.662-.261-27.376 3.449-7.7 9.155-7.966 12.757-.596"/><path id="path5107" transform="matrix(.28684 0 0 .32341 547.61 -84.828)" d="M763.95-119.98c3.6 7.405 3.717 19.662.26 27.376-3.455 7.714-9.175 7.964-12.774.559-3.6-7.406-3.717-19.662-.261-27.376 3.449-7.7 9.155-7.966 12.757-.596"/><path id="path5109" transform="matrix(.28684 0 0 .32341 541.19 -56.798)" d="M763.95-119.98c3.6 7.405 3.717 19.662.26 27.376-3.455 7.714-9.175 7.964-12.774.559-3.6-7.406-3.717-19.662-.261-27.376 3.449-7.7 9.155-7.966 12.757-.596"/><path id="path5111" transform="matrix(.28684 0 0 .32341 558.86 -56.798)" d="M763.95-119.98c3.6 7.405 3.717 19.662.26 27.376-3.455 7.714-9.175 7.964-12.774.559-3.6-7.406-3.717-19.662-.261-27.376 3.449-7.7 9.155-7.966 12.757-.596"/><path id="path5113" transform="matrix(.28684 0 0 .32341 550.83 -43.862)" d="M763.95-119.98c3.6 7.405 3.717 19.662.26 27.376-3.455 7.714-9.175 7.964-12.774.559-3.6-7.406-3.717-19.662-.261-27.376 3.449-7.7 9.155-7.966 12.757-.596"/><path id="path5115" transform="matrix(.28684 0 0 .32341 528.34 -43.862)" d="M763.95-119.98c3.6 7.405 3.717 19.662.26 27.376-3.455 7.714-9.175 7.964-12.774.559-3.6-7.406-3.717-19.662-.261-27.376 3.449-7.7 9.155-7.966 12.757-.596"/><path id="path5117" transform="matrix(.28684 0 0 .32341 521.91 -56.798)" d="M763.95-119.98c3.6 7.405 3.717 19.662.26 27.376-3.455 7.714-9.175 7.964-12.774.559-3.6-7.406-3.717-19.662-.261-27.376 3.449-7.7 9.155-7.966 12.757-.596"/></g><g id="g5119" opacity=".088" stroke-width="0" fill="#b88100" transform="matrix(.5 0 0 .5 -13.052 279.73)"><path id="path5121" transform="matrix(.28684 0 0 .32341 531.55 -84.828)" d="M763.95-119.98c3.6 7.405 3.717 19.662.26 27.376-3.455 7.714-9.175 7.964-12.774.559-3.6-7.406-3.717-19.662-.261-27.376 3.449-7.7 9.155-7.966 12.757-.596"/><path id="path5123" transform="matrix(.28684 0 0 .32341 547.61 -84.828)" d="M763.95-119.98c3.6 7.405 3.717 19.662.26 27.376-3.455 7.714-9.175 7.964-12.774.559-3.6-7.406-3.717-19.662-.261-27.376 3.449-7.7 9.155-7.966 12.757-.596"/><path id="path5125" transform="matrix(.28684 0 0 .32341 541.19 -56.798)" d="M763.95-119.98c3.6 7.405 3.717 19.662.26 27.376-3.455 7.714-9.175 7.964-12.774.559-3.6-7.406-3.717-19.662-.261-27.376 3.449-7.7 9.155-7.966 12.757-.596"/><path id="path5127" transform="matrix(.28684 0 0 .32341 558.86 -56.798)" d="M763.95-119.98c3.6 7.405 3.717 19.662.26 27.376-3.455 7.714-9.175 7.964-12.774.559-3.6-7.406-3.717-19.662-.261-27.376 3.449-7.7 9.155-7.966 12.757-.596"/><path id="path5129" transform="matrix(.28684 0 0 .32341 550.83 -43.862)" d="M763.95-119.98c3.6 7.405 3.717 19.662.26 27.376-3.455 7.714-9.175 7.964-12.774.559-3.6-7.406-3.717-19.662-.261-27.376 3.449-7.7 9.155-7.966 12.757-.596"/><path id="path5131" transform="matrix(.28684 0 0 .32341 528.34 -43.862)" d="M763.95-119.98c3.6 7.405 3.717 19.662.26 27.376-3.455 7.714-9.175 7.964-12.774.559-3.6-7.406-3.717-19.662-.261-27.376 3.449-7.7 9.155-7.966 12.757-.596"/><path id="path5133" transform="matrix(.28684 0 0 .32341 521.91 -56.798)" d="M763.95-119.98c3.6 7.405 3.717 19.662.26 27.376-3.455 7.714-9.175 7.964-12.774.559-3.6-7.406-3.717-19.662-.261-27.376 3.449-7.7 9.155-7.966 12.757-.596"/></g><g id="g5135" opacity=".088" stroke-width="0" fill="#804d00" transform="matrix(.5 0 0 .5 -53.676 286.71)"><path id="path5137" transform="matrix(.28684 0 0 .32341 531.55 -84.828)" d="M763.95-119.98c3.6 7.405 3.717 19.662.26 27.376-3.455 7.714-9.175 7.964-12.774.559-3.6-7.406-3.717-19.662-.261-27.376 3.449-7.7 9.155-7.966 12.757-.596"/><path id="path5139" transform="matrix(.28684 0 0 .32341 547.61 -84.828)" d="M763.95-119.98c3.6 7.405 3.717 19.662.26 27.376-3.455 7.714-9.175 7.964-12.774.559-3.6-7.406-3.717-19.662-.261-27.376 3.449-7.7 9.155-7.966 12.757-.596"/><path id="path5141" transform="matrix(.28684 0 0 .32341 541.19 -56.798)" d="M763.95-119.98c3.6 7.405 3.717 19.662.26 27.376-3.455 7.714-9.175 7.964-12.774.559-3.6-7.406-3.717-19.662-.261-27.376 3.449-7.7 9.155-7.966 12.757-.596"/><path id="path5143" transform="matrix(.28684 0 0 .32341 558.86 -56.798)" d="M763.95-119.98c3.6 7.405 3.717 19.662.26 27.376-3.455 7.714-9.175 7.964-12.774.559-3.6-7.406-3.717-19.662-.261-27.376 3.449-7.7 9.155-7.966 12.757-.596"/><path id="path5145" transform="matrix(.28684 0 0 .32341 550.83 -43.862)" d="M763.95-119.98c3.6 7.405 3.717 19.662.26 27.376-3.455 7.714-9.175 7.964-12.774.559-3.6-7.406-3.717-19.662-.261-27.376 3.449-7.7 9.155-7.966 12.757-.596"/><path id="path5147" transform="matrix(.28684 0 0 .32341 528.34 -43.862)" d="M763.95-119.98c3.6 7.405 3.717 19.662.26 27.376-3.455 7.714-9.175 7.964-12.774.559-3.6-7.406-3.717-19.662-.261-27.376 3.449-7.7 9.155-7.966 12.757-.596"/><path id="path5149" transform="matrix(.28684 0 0 .32341 521.91 -56.798)" d="M763.95-119.98c3.6 7.405 3.717 19.662.26 27.376-3.455 7.714-9.175 7.964-12.774.559-3.6-7.406-3.717-19.662-.261-27.376 3.449-7.7 9.155-7.966 12.757-.596"/></g><g id="g5151" opacity=".088" stroke-width="0" fill="#b88100" transform="matrix(.5 0 0 .5 4.721 176.35)"><path id="path5153" transform="matrix(.28684 0 0 .32341 531.55 -84.828)" d="M763.95-119.98c3.6 7.405 3.717 19.662.26 27.376-3.455 7.714-9.175 7.964-12.774.559-3.6-7.406-3.717-19.662-.261-27.376 3.449-7.7 9.155-7.966 12.757-.596"/><path id="path5155" transform="matrix(.28684 0 0 .32341 547.61 -84.828)" d="M763.95-119.98c3.6 7.405 3.717 19.662.26 27.376-3.455 7.714-9.175 7.964-12.774.559-3.6-7.406-3.717-19.662-.261-27.376 3.449-7.7 9.155-7.966 12.757-.596"/><path id="path5157" transform="matrix(.28684 0 0 .32341 541.19 -56.798)" d="M763.95-119.98c3.6 7.405 3.717 19.662.26 27.376-3.455 7.714-9.175 7.964-12.774.559-3.6-7.406-3.717-19.662-.261-27.376 3.449-7.7 9.155-7.966 12.757-.596"/><path id="path5159" transform="matrix(.28684 0 0 .32341 558.86 -56.798)" d="M763.95-119.98c3.6 7.405 3.717 19.662.26 27.376-3.455 7.714-9.175 7.964-12.774.559-3.6-7.406-3.717-19.662-.261-27.376 3.449-7.7 9.155-7.966 12.757-.596"/><path id="path5161" transform="matrix(.28684 0 0 .32341 550.83 -43.862)" d="M763.95-119.98c3.6 7.405 3.717 19.662.26 27.376-3.455 7.714-9.175 7.964-12.774.559-3.6-7.406-3.717-19.662-.261-27.376 3.449-7.7 9.155-7.966 12.757-.596"/><path id="path5163" transform="matrix(.28684 0 0 .32341 528.34 -43.862)" d="M763.95-119.98c3.6 7.405 3.717 19.662.26 27.376-3.455 7.714-9.175 7.964-12.774.559-3.6-7.406-3.717-19.662-.261-27.376 3.449-7.7 9.155-7.966 12.757-.596"/><path id="path5165" transform="matrix(.28684 0 0 .32341 521.91 -56.798)" d="M763.95-119.98c3.6 7.405 3.717 19.662.26 27.376-3.455 7.714-9.175 7.964-12.774.559-3.6-7.406-3.717-19.662-.261-27.376 3.449-7.7 9.155-7.966 12.757-.596"/></g><path id="path5167" opacity=".132" stroke-width="0" fill="#0e232e" d="M276.62 251.93c-1.442-9.203-.417-19.788 3.035-26.963 4.757-9.885 12.318-9.553 16.884.743 2.059 4.642 3.163 10.517 3.313 16.475-.544-3.5-1.454-6.8-2.714-9.641-4.567-10.296-12.113-10.648-16.87-.764-2.621 5.447-3.842 12.869-3.649 20.15z"/><path id="path5169" opacity=".488" d="M135.34-254.89c10.285 13.576 10.619 36.047.745 50.189-9.874 14.142-26.216 14.601-36.501 1.024-10.285-13.576-10.62-36.047-.745-50.189 9.854-14.114 26.157-14.603 36.449-1.092" transform="matrix(.43911 0 0 .50242 234.5 337.29)" filter="url('#filter4855')" stroke-width="0" fill="url('#radialGradient15008')"/><path id="path5171" opacity=".595" d="M380.28-79.511c2.314 2.715 2.39 7.21.168 10.038-2.222 2.828-5.899 2.92-8.213.205-2.314-2.715-2.39-7.21-.168-10.038 2.217-2.823 5.885-2.92 8.201-.219" transform="matrix(-.57709 0 0 .39449 501.76 279.1)" filter="url('#filter4869')" stroke-width="0" fill="#fff"/><path id="path5173" opacity=".132" stroke-width="0" fill="#0e232e" d="M353.42 140.04c-.881-6.007-.255-12.917 1.855-17.601 2.906-6.452 7.526-6.236 10.317.485 1.258 3.03 1.932 6.866 2.024 10.754-.332-2.285-.889-4.44-1.659-6.294-2.79-6.72-7.401-6.95-10.308-.498-1.601 3.555-2.347 8.4-2.229 13.153z"/><path id="path5175" opacity=".488" d="M135.34-254.89c10.285 13.576 10.619 36.047.745 50.189-9.874 14.142-26.216 14.601-36.501 1.024-10.285-13.576-10.62-36.047-.745-50.189 9.854-14.114 26.157-14.603 36.449-1.092" transform="matrix(.26831 0 0 .32797 328.47 209.23)" filter="url('#filter4855')" stroke-width="0" fill="url('#radialGradient15008')"/><path id="path5177" opacity=".595" d="M380.28-79.511c2.314 2.715 2.39 7.21.168 10.038-2.222 2.828-5.899 2.92-8.213.205-2.314-2.715-2.39-7.21-.168-10.038 2.217-2.823 5.885-2.92 8.201-.219" transform="matrix(-.35261 0 0 .25752 474.21 231.34)" filter="url('#filter4869')" stroke-width="0" fill="#fff"/><path id="path5179" opacity=".132" stroke-width="0" fill="#0e232e" d="M336.59 208.56c-.762 3.525-.22 7.58 1.604 10.328 2.513 3.786 6.509 3.66 8.922-.285 1.087-1.778 1.67-4.028 1.75-6.31-.287 1.34-.769 2.604-1.434 3.693-2.413 3.944-6.4 4.079-8.914.292-1.385-2.086-2.03-4.93-1.928-7.718z"/><path id="path5181" opacity=".132" stroke-width="0" fill="#0e232e" d="M315.99 140.68c-.881-6.007-.255-12.917 1.855-17.601 2.906-6.452 7.526-6.236 10.317.485 1.258 3.03 1.932 6.866 2.024 10.754-.332-2.285-.889-4.44-1.659-6.294-2.79-6.72-7.401-6.95-10.308-.498-1.601 3.555-2.347 8.4-2.229 13.153z"/><path id="path5183" opacity=".488" d="M135.34-254.89c10.285 13.576 10.619 36.047.745 50.189-9.874 14.142-26.216 14.601-36.501 1.024-10.285-13.576-10.62-36.047-.745-50.189 9.854-14.114 26.157-14.603 36.449-1.092" transform="matrix(.26831 0 0 .32797 291.04 209.88)" filter="url('#filter4855')" stroke-width="0" fill="url('#radialGradient15008')"/><path id="path5185" opacity=".595" d="M380.28-79.511c2.314 2.715 2.39 7.21.168 10.038-2.222 2.828-5.899 2.92-8.213.205-2.314-2.715-2.39-7.21-.168-10.038 2.217-2.823 5.885-2.92 8.201-.219" transform="matrix(-.35261 0 0 .25752 436.78 231.99)" filter="url('#filter4869')" stroke-width="0" fill="#fff"/></g><path id="path19563" opacity=".312" d="M235.48 199.8a36.509 70.279 0 1 1-73.018 0 36.509 70.279 0 1 1 73.018 0z" transform="matrix(.96593 .25882 -.32941 1.2294 61.641 -109.19)" stroke-width="0" fill="url('#linearGradient19571')"/></g></svg>