<svg xmlns="http://www.w3.org/2000/svg" xml:space="preserve" width="600" height="600" style="shape-rendering:geometricPrecision;text-rendering:geometricPrecision;image-rendering:optimizeQuality;fill-rule:evenodd;clip-rule:evenodd" viewBox="0 0 600 750"><defs><style>.fil1{fill:#060606}.fil14{fill:#636363}.fil8{fill:#818181}.fil16{fill:#8f8f8f}.fil15{fill:#947c21}.fil12{fill:#a4a4a4}.fil4{fill:#b1b1b1}.fil11{fill:#b29626}.fil5{fill:#bdbdbd}.fil3{fill:#c1a229}.fil6{fill:#c9c9c9}.fil13{fill:#d0af2c}.fil7{fill:#e0e0e0}.fil10{fill:#ecc732}.fil2{fill:#fad435}.fil9{fill:#fff03b}</style></defs><g id="Livello_x0020_1"><g id="_84096064"><path id="_78942840" d="m452.913 374.421 8.811 14.345c8.867 1.598 17.2 5.59 24.252 11.168 12.922 10.223 17.991 25.451 15.906 41.598-.793 6.135-2.425 12.048-4.652 15.926l-17.637 20.577-24.073 6.636c-2.394 2.525-5.397 4.588-9.027 6.11-12.06 5.053-20.325 4.741-31.75-1.923l-8.466-5.036c.77 10.858-2.261 20.769-8.699 30.145l-.03 67.067 10.319 8.6-.016 52.677-202.294 59.635c-16.051-20.991-30.772-41.342-44.407-63.93l-4.671-91.605c-5.12 4.257-11.991 7.653-17.031 7.653-13.251 0-25.881-13.26-31.32-24.08-5.372-10.684-6.59-21.226-5.808-31.45.646-8.472 2.202-16.61 8.115-25.482l5.314-6.822c-1.627-1.937-2.958-4.101-3.89-6.412-2.156-5.34-3.094-11.411-4.624-16.988l-9.567-68.979c-.003-4.216 1.205-8.252 2.208-12.307l20.805-79.428c4.955-18.918 16.788-30.015 36.914-33.465.65-5.425 3.153-10.858 9.295-13.279l20.54-5.502c-4.284-4.624-6.146-11.112-6.146-18.904l-4.86-92.528c-1.012-19.297 10.827-34.858 30.207-38.405l10.55-.883-.068-31.096 101.046.93.375 30.166c5.192 0 10.226.156 15.311 1.431 19.03 4.772 26.896 19.236 27.085 38.159l.906 90.526c.075 7.562-4.17 15.13-8.887 21.027l23.613 2.268 12.066 3.105c10.875 4.683 18.804 12.255 24.096 24.818l6.622 25.163c3.52 12.316 6.597 28.407 10.722 38.578 6.488 16.002 13.463 31.253 22.845 50.196z" style="fill:#1f1a17"/><path id="_80733304" class="fil1" d="M285.517 152.279c0 1.306-3.156 3.175-4.763 3.175-1.438 0-2.604-2.89-3.175-3.97.906-1.353 1.728-3.175 3.969-3.175 2.336 0 3.969 1.635 3.969 3.97zm-3.174 13.495c6.246-1.455 11.682-6.487 7.938-14.29h3.969v-1.587c-4.053-2.145-8.868-3.969-15.082-3.969-4.064 0-11.063 2.391-11.909 5.556h4.763c-.237 10.686-.791 8.976 7.146 14.29h3.175z"/><path id="_81857648" class="fil1" d="M326.005 151.483c0 .968-1.643 2.382-3.175 2.382-1.292 0-1.851-2.172-2.426-3.198l1.674-3.129 3.132-.024c.415 1.78.795 1.825.795 3.969zm6.351-1.587v-1.588c-1.85-1.238-4.144-3.176-7.146-3.176h-2.38c-4.601 0-9.327 1.835-10.32 5.558h3.175c-.11 4.891-.076 13.495 6.351 13.495h.793c5.957 0 9.14-8.475 6.351-14.289h3.176z"/><path id="_82516144" class="fil1" d="m301.395 191.177-18.258-3.175-3.547-1.81-.488-1.096-2.98 4.883.76.52 2.211-1.442 6.424 2.12 22.229 2.382 19.59-6.327.256.77v-3.97c-8.338 2.228-12.345 7.145-26.197 7.145z"/><path id="_217761824" class="fil1" d="M294.25 141.958c.045-1.456-1.466-4.22-2.92-5.675-1.455-1.454-4.356-3.103-5.813-3.058h-2.38c-8.508 0-15.252 2.805-15.878 10.32 4.542-1.214 5.274-4.763 11.909-4.763h5.556c5.785 0 8.278 6.938 9.526 3.176z"/><path id="_83357008" class="fil1" d="M311.715 142.752c3.84-1.026 4.556-4.764 9.527-4.764h4.763c2.57 0 4.07 3.144 6.351 3.97-.786-3.37-3.525-9.526-7.146-9.526h-3.174c-5.712 0-9.219 5.589-10.321 10.32z"/><path id="_82516480" class="fil2" d="M198.987 95.12c19.24 1.601 138.044 21.253 149.246 15.877l-.793-3.175c-13.997 1.165-140.88-11.951-144.482-15.083l-3.971 2.38z"/><path id="_83356672" class="fil2" d="m133.096 496.813 2.383 10.321 18.259-.794-2.382-8.733-.793-1.587z"/><path id="_218359400" class="fil2" d="m477.633 430.923.794 9.527 12.702-3.176-1.589-10.32z"/><path id="_83964152" class="fil2" d="M198.987 502.371v.793l8.279-2.596 1.247 2.596h7.145l.795-6.351-1.547-.862-5.627 2.381.779-2.328-8.689.016-.794-6.351z"/><path id="_83493384" class="fil2" d="m427.618 449.976 3.97 7.938 3.213-.786.74-4.535 9.543.558c-1.395-2.334-3.403-5.367-4.764-7.939l-12.702 4.764z"/><path id="_83831272" class="fil2" d="m146.592 444.418 1.588 11.909 4.763-3.175-2.38-9.527z"/><path id="_83241512" class="fil3" d="M283.137 133.225h2.38c1.457-.045 4.358 1.602 5.813 3.058 1.455 1.456 2.966 4.219 2.92 5.675v9.525h-3.969c3.744 7.803-1.692 12.835-7.938 14.29l.794 22.227 18.258 3.176-3.175-19.052h-2.381c-2.145 0-2.19-.379-3.687-.753l4.48-33.384c.707-4.856-4.392-7.274-7.272-8.815l2.265-3.652-6.907-8.127-13.49-1.632h-3.969l-.057-1.251-74.566-13.04-.794.794c2.697 3.68 40.767 8.727 48.486 10.261 7.461 1.482 17.706 2.663 24.023 5.35 2.977 1.267 17.197 9.598 17.197 12.175l.041 2.261 1.548.914z"/><path id="_218072592" class="fil3" d="m349.028 211.023.793-3.175-3.439 2.911-28.276 2.474c-.947-1.979-5.49-7.766-7.184-7.766-.057 0-4.167 2.095-4.763 2.38l-2.738-5.049 1.15-2.095h-6.351v-1.587h3.176c1.857 0 2.053.237 3.175.793l1.589-.793v-3.175h1.587v-2.382l-22.229-2.382c-1.204 2.557 4.859 15.042 7.94 16.67l-.942 2.325c11.229 7.478 13.089 3.737 27.993 5.562 3.453.423 10.914-.646 15.847-.71 7.427-.098 8.199-1.634 12.672-4.001z"/><path id="_81857072" class="fil3" d="M273.611 89.564h7.937V60.19h-8.731z"/><path id="_80766144" class="fil3" d="m177.553 511.896-3.175 7.146 19.268-7.914-1.013 8.757 12.705.744.917-1.452 3.847-4.899h-15.878v-3.176l4.763-7.938v-.793z"/><path id="_82575392" class="fil3" d="m417.298 401.55 4.484 12.025c-1.661 2.78-5.265 6.128-10.04 6.235l-4.764 4.762.195 2.757 19.651-9.902 5.558-9.526-7.088 4.072-.056-1.69c-1.956-2.92-3.657-5.895-5.558-8.733v-1.587l-2.382 1.587z"/><path id="_82787576" class="fil3" d="M279.962 238.016v14.289l8.731.793 4.764-.793-2.382-.794h-2.382V237.22z"/><path id="_84264864" class="fil3" d="m139.447 518.247 1.622 4.149 15.845-3.354v-3.176z"/><path id="_82943880" class="fil3" d="m477.633 449.976.069 3.405 9.456-2.612 2.382-4.762z"/><path id="_83357400" class="fil4" d="m218.04 499.195-1.587 6.351c14.481 0 12.948-3.432 20.631-3.978 6.396-.455 15.82-2.595 21.633-3.771 14.385-2.91 27.885-4.508 42.231-7.782 13.902-3.174 27.243-5.939 41.262-8.751 9.765-1.959 33.493-8.267 41.865-8.602l-2.499-1.253c3.748 0 9.201-.405 10.32-3.175l-.795-3.97-173.061 34.931z"/><path id="_84214720" class="fil4" d="m138.654 438.861 4.764-1.587c-3.786-5.965.922-26.457 1.602-32.533.317-2.814 2.978-11.58 4.014-14.244 1.445-3.713 7.005-5.117 9.482-8.396l7.129-.398 3.369-.02.6 7.165c3.486 5.205 3.233 3.408 6.104 10.567 1.32 3.291 2.644 10.517 5.805 11.661l-1.698-11.251c-.684-5.756-2.271-5.088-2.271-8.595 0-4.845 2.46-16.029 2.382-16.671l-1.6-15.083-2.371-.001-10.344-1.449c-4.299 2.757-12.874 8.148-15.073 12.549-2.093 4.19-8.466 14.646-9.375 17.616-1.686 5.499-6.413 44.532-2.519 50.67z"/><path id="_82510792" class="fil4" d="m379.988 273.738.793 3.175h8.733l7.761 3.59 1.15-.464 2.623 51.671 1.962.378 2.517 23.401 1.452.017v7.144h2.382l2.608 16.631 1.361.04v2.382c0 2.74 3.969 5.748 3.969 11.909l2.382.793 3.175-1.588-2.866-8.031-5.128-17.117.85-.255c-6.304-2.545-7.94-48.123-7.94-60.334l1.462.018-1.175-11.438 2.095 1.895-.793-3.176-1.588-5.557-3.97-15.084v4.764c-4.637-.386-12.116-6.46-17.464-5.558l-6.351.794z"/><path id="_218967688" class="fil4" d="m143.418 268.182 3.969 11.907h3.969c.729 8.769 25.043 14.604 26.186 17.559l21.445 2.288v-7.145h-7.938v-1.587h-10.32c-12.168 0-26.595-12.936-31.755-20.641v-5.556l-5.556 3.175z"/><path id="_83474280" class="fil4" d="M277.58 151.483c.572 1.08 1.737 3.97 3.175 3.97 1.607 0 4.763-1.869 4.763-3.175 0-2.336-1.633-3.97-3.969-3.97-2.241 0-3.063 1.822-3.969 3.175z"/><path id="_82875200" class="fil5" d="m218.834 491.256-.794 7.939 173.061-34.93-1.587-7.145z"/><path id="_84422696" class="fil5" d="m143.418 437.274 5.556-1.589c-2.425-.933-.445-5.515.024-9.502.398-3.37.93-7.543 1.88-10.821 1.818-6.269 4.075-14.606 11.592-14.606h2.382c9.811 0 21.88 34.68 20.64 37.311l3.175 3.176-2.382-11.114-4.762-19.053c-3.161-1.144-4.485-8.37-5.805-11.66-2.871-7.16-2.618-5.363-6.104-10.568l-.6-7.166-3.369.021-7.13.398c-2.476 3.279-8.036 4.683-9.481 8.395-1.036 2.664-3.697 11.43-4.014 14.244-.68 6.077-5.388 26.568-1.602 32.534z"/><path id="_82722384" class="fil5" d="m422.856 392.817 2.382-1.587c-3.342-6.966-11.909-43.317-11.909-53.982l.057-10.468 2.325.942.042-4.038 1.545.862-7.144-26.991-2.095-1.894 1.174 11.437-1.461-.018c0 12.212 1.635 57.789 7.94 60.335l-.851.255 5.128 17.116 2.867 8.031z"/><path id="_218252944" class="fil5" d="m379.194 265.007.793 8.732 6.351-.794c5.348-.903 12.827 5.172 17.465 5.558v-4.764l-3.175-7.938v2.382l-10.316-.839c-1.488-3.631-7.606-2.415-11.118-2.337z"/><path id="_82575224" class="fil6" d="m218.834 491.256 170.68-34.136-1.779-7.091-170.439 33.543z"/><path id="_81397912" class="fil6" d="m191.049 242.778-11.909 2.382 26.702 11.829c1.367 1.32 11.5 8.018 14.58 8.018h7.145l147.659-11.909-.863-1.545.068-1.63-1.428-1.747.59 2.558c-13.58-3.192-66.988 5.383-85.67 5.562-11.856.112-30.552 1.798-42.834 3.21-5.874.673-15.19.756-21.195 1.867-7.268 1.347-7.928-5.1-16.967-5.1l.372-.802-5.784-2.685c.926-3.7 7.482-3.617 10.968-6.039l-4.725-.984-.037-2.192 9.526-2.38h-4.764l-21.433 1.587z"/><path id="_82511272" class="fil6" d="m148.974 435.685 11.115-1.587 3.175-7.144 10.052.183 4.237 7.755 7.939 3.175c1.24-2.631-10.829-37.311-20.64-37.311h-2.383c-7.516 0-9.774 8.337-11.592 14.606-.949 3.277-1.482 7.45-1.879 10.82-.47 3.988-2.45 8.57-.024 9.503z"/><path id="_218671280" class="fil6" d="m425.238 391.23 7.938-2.382-3.219-13.518 1.534-3.136-.454-5.8 6.903 6.577c-5.716-14.195-15.524-32.048-20.642-48.425l-1.545-.862-.042 4.038-2.325-.942-.057 10.468c0 10.665 8.567 47.016 11.909 53.982z"/><path id="_83217056" class="fil6" d="M148.974 265.007v5.556c5.16 7.705 19.587 20.642 31.755 20.642h10.32v1.587h7.938l-.794-6.351c-19.665 0-42.493-7.784-46.044-23.022l-3.175 1.588z"/><path id="_84265232" class="fil6" d="m377.606 262.625 1.589 2.382c3.511-.078 9.63-1.294 11.118 2.337l10.315.839V265.8l-.861-1.547-2.314-4.011-2.21 2.583-17.637-4.17v3.969z"/><path id="_80492160" class="fil6" d="M320.404 150.667c.575 1.026 1.134 3.198 2.425 3.198 1.533 0 3.176-1.415 3.176-2.382 0-2.143-.38-2.188-.795-3.969l-3.132.024-1.674 3.129z"/><path id="_81760520" class="fil7" d="M324.417 245.953c-2.295 3.134-7.872 3.969-13.495 3.969l-4.763.793c-1.562 1.87-8.977 1.589-12.702 1.589l-4.764.793h-36.517c-7.731 0-12.303-.451-18.446-1.399-8.262-1.275-9.748-2.958-14.896-4.158v-6.35h-1.588l-9.526 2.381.037 2.192 4.725.984c-3.486 2.422-10.042 2.338-10.968 6.039l5.784 2.685-.372.802c9.04 0 9.7 6.447 16.967 5.1 6.006-1.111 15.321-1.194 21.195-1.867 12.282-1.412 30.978-3.098 42.834-3.21 18.682-.179 72.09-8.754 85.671-5.562l-.591-2.558 1.428 1.746c2.403 1.761 3.175 4.56 3.175 8.733l17.637 4.17 2.21-2.583-.926-2.248-.661-.927-7.145-7.938-6.35-3.176-16.63-2.007 6.536 2.936-.285.879-45.227-12c.035 4.857 1.454 9.177-2.347 10.192z"/><path id="_81751904" class="fil7" d="m200.575 638.121 7.144 10.32c5.492-.123 41.301-10.498 47.631-12.702 6.518-2.268 44.68-10.518 46.044-14.289l-7.938-8.733-92.881 25.404z"/><path id="_82931200" class="fil7" d="m302.19 610.335 8.731 9.526 84.563-23.381-4.383-5.198-5.556-3.969z"/><path id="_217896568" class="fil7" d="M152.149 263.418c3.55 15.239 26.379 23.022 46.044 23.022 0-10.22-3.83-17.68-7.938-23.816l-26.968-1.893-1.612.307c-3.783 0-6.17 1.599-9.526 2.38z"/><path id="_81739096" class="fil7" d="m433.176 388.848 13.529-1.607-8.765-14.27-6.903-6.577.454 5.799-1.534 3.137z"/><path id="_84264752" class="fil7" d="m160.089 434.099 17.464.793-4.237-7.755-10.051-.183z"/><path id="_84081632" class="fil8" d="M392.69 476.173v7.938c-7.58.17-16.052 4.035-22.99 4.794-6.221.682-17.316 3.241-23.678 4.902-14.354 3.745-31.846 5.98-46.101 10.263-12.654 3.802-32.72 7.464-46.212 10.153-13.893 2.768-33.53 8.787-48.37 8.787l-1.587 1.587-2.382.795c-.533.794-2.444 2.766-2.558 3.201l.91 6.848 74.04-16.491 56.213-11.817c.624-1.881 2.583-.957 6.827-1.904 2.863-.639 6.043-1.315 8.424-1.899 6.085-1.489 11.322-2.33 17.625-3.808 5.952-1.395 10.857-2.44 16.809-3.831 7.587-1.772 13.03-.111 13.03-8.405v-2.382h1.587l-1.587-8.731z"/><path id="_84221040" class="fil8" d="M135.479 277.709c.207 9.31 14.64 17.844 8.733 31.753-3.417 8.046-7.79 24.045-9.99 33.674-2.596 11.356-6.585 22.82-10.152 33.51-5.676 17.01-2.086 20.343-2.086 39.193h1.588v2.382c0 3.201.021 6.192 2.145 7.17l1.863 19.146 1.548-.912-3.224-34.926.048-21.438c0-10.732 10.32-21.552 10.32-33.342 4.221-1.703 6.932-20.066 9.84-25.09 4.085-7.058 7.835-15.435 11.595-22.542l-11.854-15.304.74-.573c-3.15-.84-8.732-11.406-8.732-15.083 0-1.204 1.561-.897 2.382-3.969l-4.764 6.351z"/><path id="_84266288" class="fil8" d="m195.018 453.152 3.175 2.38.794-8.731v-9.527l1.442-.01.94-15.073v-6.351l1.425-.017 12.868-123.743-.798-.083c5.006-2.649 3.97-14.778 3.97-22.228-4.996-.546-10.35-9.527-20.64-9.527l7.453 4.133 3.66.631 3.633 3.572-14.358 144.839-1.182.042-2.382 39.693z"/><path id="_218359344" class="fil8" d="m391.101 352.331 5.34 28.326 9.864 22.65 5.437-4.138c-2.023-2.91-2.329-8.118-4.846-11.825-4.296-6.327-2.579-5.138-5.474-11.991-1.501-3.552-8.66-22.977-8.775-26.13l-1.546-.861v3.969z"/><path id="_84316136" class="fil9" d="m143.418 461.089-7.94 12.702-2.382 7.938v15.084l17.466-.793c-4.669-9.731 5.348-22.868 10.32-26.198 2.694-1.71 9.695-3.969 14.29-3.969 12.577 0 25.403 11.645 25.403 23.816l.794 6.35 8.69-.016-.78 2.328 5.627-2.38 1.547.862c.414-1.78.793-1.825.793-3.969 0-8.262-4.329-22.428-10.992-27.921-2.329-5.751-19.354-13.671-25.028-14.65-9.644-1.666-22.764.463-28.283 5.258l-9.525 5.558z"/><path id="_80860088" class="fil9" d="M202.957 92.739c3.603 3.132 130.485 16.248 144.482 15.082l-2.382-6.35-2.38-3.176-.794-.793c-5.49-4.391-12.72-6.351-19.846-6.351h-108.76l-10.32 1.588z"/><path id="_83908632" class="fil9" d="m422.063 399.168 4.763 9.527h1.588l7.359-2.852-3.39 2.058-5.558 9.527-2.382 21.433 3.176 11.115 12.702-4.764-1.587-3.175v-3.176l-.793-7.938c-.128-3.638 1.113-6.428 3.175-7.938l3.969-4.764 3.969-3.175 7.144-.794h.794c11.508 0 16.83 8.73 20.641 16.671l11.907-3.969-2.382-7.144c-2.433-7.305-13.917-14.951-20.749-17.355-5.045-1.776-8.198-2.492-14.973-2.492-5.68 0-10.292 4.43-14.29 4.763l2.206-1.866-3-6.867c-4.374-2.775-11.873 1.075-14.289 3.175z"/><path id="_83356840" class="fil9" d="m150.563 443.625 2.38 9.527c7.124-1.661 10.506-5.558 21.435-5.558l-3.175-3.969c-2.772-.646-2.673-1.589-5.558-1.589h-6.35l-8.732 1.589z"/><path id="_82047568" class="fil10" d="m195.018 98.295 8.828 1.473 2.311 1.534 107.147 15.252c1.62 2.42 2.748 3.231 5.238 5.082 3.72 2.765 2.898 2.922 5.256 5.86 2.644 3.293 9.352 2.752 9.352 12.874l.176.82-.969 7.118v1.589l-2.84 27.264 7.853-9.285 9.276 8.218c3.389-14.542 2.382-29.853 2.382-47.632v-3.176l-.795-14.289c-11.202 5.376-130.005-14.275-149.246-15.877l-3.969 3.175z"/><path id="_80492568" class="fil10" d="m299.015 89.564 8.089-.011-.945-16.66V60.983h-7.144z"/><path id="_82604360" class="fil10" d="m198.987 503.164-4.763 7.938 18.259-.793 3.175-7.145h-7.145l-1.247-2.596z"/><path id="_83830312" class="fil10" d="m319.654 234.045-3.969.795v13.495c3.123-.729 6.15-1.78 8.732-2.382 1.038-2.092.793.654.793-2.382v-10.32l-5.556.794z"/><path id="_83965016" class="fil10" d="m135.479 507.134 1.588 6.351 19.847-2.383-3.176-4.762z"/><path id="_82575504" class="fil10" d="m478.427 440.45-.794 9.526 11.907-3.969 1.589-8.733z"/><path id="_83218856" class="fil10" d="m431.589 457.914 3.176 4.764 13.495-6.351-3.176-3.175-9.542-.558-.74 4.534z"/><path id="_84264944" class="fil10" d="M419.68 399.963v1.587c1.9 2.838 3.602 5.813 5.558 8.733l3.175-1.589h-1.589l-4.762-9.526-2.382.795z"/><path id="_83474592" class="fil11" d="m191.049 103.853 10.19 3.066 31.09 5.667c1.25 3.095 8.577 2.747 11.793 4.085 2.69 1.117 3.473 7.574 4.578 11.297 2.51 8.449 4.605 16.012 7.15 24.605 2.518 8.498 4.379 16.256 6.943 24.813 1.36 4.546 4.831 23.772 7.642 24.906l-.783.335 5.545 13.16 2.382.005 31.755 2.377h23.022c3.78 0 5.723-.511 9.063-1.257 6.209-1.386 4.332-2.632 7.608-3.507v-2.382c-4.473 2.367-5.245 3.903-12.672 4.001-4.933.064-12.394 1.134-15.847.711-14.904-1.826-16.764 1.915-27.993-5.562l.942-2.325c-3.081-1.629-9.144-14.114-7.94-16.671l-6.424-2.12-2.211 1.442-.76-.52 2.98-4.883.487 1.097 3.548 1.808-.794-22.227h-3.175c-7.937-5.314-7.383-3.604-7.146-14.29h-4.763c.846-3.165 7.845-5.556 11.909-5.556 6.214 0 11.03 1.824 15.082 3.969v-7.938c-1.248 3.762-3.74-3.176-9.526-3.176h-5.556c-6.635 0-7.367 3.55-11.909 4.763.626-7.515 7.37-10.32 15.878-10.32l-1.548-.914-.04-2.262c0-2.577-14.22-10.908-17.198-12.174-6.317-2.688-16.562-3.868-24.023-5.35-7.719-1.535-45.789-6.58-48.486-10.262l-.793 1.589z"/><path id="_217898168" class="fil11" d="M262.497 89.564h11.114l-.794-29.373h-11.115v12.701z"/><path id="_81397632" class="fil11" d="M263.291 252.305h16.671v-14.289h-17.465z"/><path id="_81397072" class="fil11" d="m406.979 424.572-.794 1.589-3.969 12.7 2.295-.15 19.07-10.962.862 11.112 2.382-21.433-19.652 9.901z"/><path id="_83965496" class="fil11" d="m116.426 485.7-1.588 7.144 16.71-12.026 1.548.912 2.383-7.939z"/><path id="_83965304" class="fil11" d="m437.94 466.647 3.227 4.083 9.473-4.083v-6.489l-.793-2.244.086 2.544z"/><path id="_81397800" class="fil11" d="m137.861 449.976 1.644 12.773 3.913-3.246-.795-12.702z"/><path id="_80821240" class="fil12" d="m133.096 441.243 5.558-2.382c-3.894-6.138.832-45.171 2.518-50.67.909-2.97 7.282-13.427 9.375-17.616 2.199-4.401 10.774-9.792 15.073-12.549l10.344 1.449 2.372.002 1.599 15.082c.078.642-2.382 11.826-2.382 16.671 0 3.507 1.587 2.84 2.271 8.595l1.698 11.252 4.762 19.053-4.762-31.755c-1.71-9.947 14.289-62.77 14.289-77.798-1.032-3.87-14.285-6.351-19.052-6.351-3.51 0-14.311 9.926-16.89 12.482-1.674 1.659-9.23 16.635-10.1 19.272-1.955 5.916-8.066 15.702-9.38 19.993-1.509 4.92-5.74 17.317-9.674 18.906v19.846l.959 23.015 1.422.007v13.496z"/><path id="_81399352" class="fil12" d="m391.101 348.361 1.546.861c.114 3.153 7.274 22.578 8.775 26.13 2.895 6.854 1.178 5.664 5.474 11.991 2.517 3.706 2.823 8.914 4.846 11.824l7.938-4.762-2.382-.793c0-6.161-3.969-9.17-3.969-11.909v-2.382l-1.36-.04-2.609-16.631h-2.382v-7.144l-1.452-.017-2.517-23.401-1.962-.379-2.623-51.67-1.149.464-7.761-3.59h-8.733l10.32 71.448z"/><path id="_83131568" class="fil12" d="m175.171 245.953-.793.793c1.13 3.125 11.137 5.654 15.394 6.833 6.112 1.694 11.754 5.75 16.791 6.455l4.953 2.635.966 3.13h3.97c.827 1.236 1.052 2.382 3.176 2.382l15.078-.052 127.817-11.856h10.32v2.382c0 2.682 3.69 16.145 4.665 18.357.618 1.404 2.415 18.738 2.477 21.339.142 6.048 3.194 12.573 3.197 19.824.003 8.101.615 14.53 1.878 21.937 1.706 10.01 11.472 78.024 13.187 80.49h3.175l-10.321-68.272-13.496-89.706-2.38-9.527-147.659 11.909h-7.145c-3.079 0-13.213-6.697-14.58-8.018L179.14 245.16l-3.969.794z"/><path id="_81397296" class="fil12" d="m216.453 505.547-2.382 6.35c9.893 0 38.65-4.623 46.242-6.947 3.781-1.158 4.987-3.017 10.114-3.381 3.885-.276 7.922-1.506 11.312-2.183 7.673-1.531 14.676-2.802 22.365-4.626 14.486-3.437 30.176-6.214 44.184-9.005 7.756-1.545 39.711-7.331 44.401-9.581l-.793-7.94c-1.119 2.771-6.572 3.176-10.32 3.176l2.499 1.252c-8.371.336-32.1 6.644-41.865 8.603-14.019 2.813-27.36 5.577-41.262 8.751-14.346 3.274-27.846 4.872-42.231 7.782-5.812 1.176-15.237 3.316-21.633 3.771-7.683.546-6.15 3.978-20.631 3.978z"/><path id="_82516032" class="fil12" d="m198.194 304.7.793-4.764-21.445-2.288c-1.143-2.955-25.457-8.79-26.186-17.559h-3.969l-3.969-11.907-.795.794 3.982 13.491 10.534 8.583.569-.64v3.97l.549-.9 12.433 7.582 5.276.462c4.279 2.865 15.285 3.176 22.228 3.176z"/><path id="_218359512" class="fil13" d="M311.715 142.752c1.103-4.731 4.61-10.32 10.322-10.32h3.174c3.62 0 6.36 6.156 7.145 9.527-2.281-.827-3.781-3.971-6.35-3.971h-4.764c-4.972 0-5.687 3.738-9.527 4.764zM192.636 101.47l74.566 13.04.057 1.251h3.97l13.489 1.632 6.907 8.127-2.264 3.653c2.88 1.54 7.978 3.958 7.272 8.815l-4.481 33.384c1.497.373 1.542.753 3.687.753h2.38l3.176 19.052c13.853 0 17.859-4.917 26.198-7.145v3.969l-.257-.77-19.59 6.328v2.382h-1.587v3.175l4.01-.582c-.981 2.385.988.365-2.423 2.169h-3.175l-1.151 2.096 2.739 5.049c.596-.285 4.705-2.381 4.763-2.381 1.693 0 6.236 5.787 7.183 7.766l28.276-2.474 3.44-2.911-.794-79.386c0 17.779 1.007 33.09-2.382 47.632l-9.276-8.218-7.852 9.285 2.84-27.264h-3.176c2.788 5.814-.395 14.289-6.351 14.289h-.794c-6.427 0-6.46-8.605-6.35-13.496h-3.176c.993-3.723 5.72-5.558 10.32-5.558h2.38c3.002 0 5.297 1.938 7.146 3.176l.97-7.117-.176-.821c0-10.122-6.708-9.58-9.353-12.875-2.358-2.937-1.536-3.094-5.256-5.859-2.49-1.85-3.618-2.662-5.238-5.082l-107.147-15.252-2.311-1.534-8.828-1.473-2.382 3.175z"/><path id="_81756880" class="fil13" d="M281.548 89.564h17.467v-28.58l-11.909-.794h-5.558z"/><path id="_218359592" class="fil13" d="M293.457 237.22h-4.764v14.291h2.382l10.32-.795h4.764l4.762-.793 4.764-1.587V234.84z"/><path id="_83964824" class="fil13" d="m128.334 471.409-3.969 3.176-1.588 1.588-4.763 7.145-1.588 2.382 19.053-11.909 7.939-12.702z"/><path id="_83489144" class="fil13" d="m137.067 513.485 2.38 4.762 17.467-2.381v-4.764z"/><path id="_218251888" class="fil13" d="m434.765 462.678 3.175 3.969 11.993-6.189-.086-2.544-.662-.926-.925-.661z"/><path id="_82516424" class="fil13" d="M194.224 511.102v3.176h15.878l2.381-3.969z"/><path id="_82515416" class="fil13" d="m142.623 446.801.795 12.702 4.762-3.176-1.588-11.909z"/><path id="_218252872" class="fil14" d="M169.614 573.818c0 8.597.68 22.555 1.663 30.885 1.001 8.456.046 23.131 1.631 30.918.522 2.559 24.674 37.544 26.874 39.018l10.32 13.495-2.382-39.693-7.144-10.32-4.818-84.94 95.248-21.741 2.451 81.277 7.938 8.733 1.557.794.825 33.342v-16.671l.631.006.956 13.49 3.175 3.175 3.176 2.382-.793-38.106-8.732-9.527-2.349-80.974 2.349.001c1.779 0 1.742-.628 3.174-1.588l80.216-18.105c5.442-4.896 8.697-18.081 8.697-24.764h-1.587v2.382c0 8.294-5.444 6.633-13.031 8.405-5.952 1.39-10.857 2.436-16.809 3.831-6.303 1.477-11.54 2.319-17.625 3.808-2.38.584-5.56 1.26-8.424 1.9-4.244.946-6.202.022-6.827 1.903l-56.212 11.817-74.04 16.491-.91-6.848c.113-.435 2.024-2.407 2.557-3.2l-6.351 4.762c-2.397 3.579-13.439 8.302-18.58 10.066-5.977 2.05-2.804-2.028-3.959-8.167-.617-3.278-1.209-9.824.31-12.219l1.589-.794 3.175-7.146c.207-2.482.794-2.82.794-5.556v-3.175c0-5.62-2.237-11.273-5.558-13.496l-6.873-5.869 3.698 90.018z"/><path id="_83310208" class="fil14" d="M118.808 439.656c1.575 5.739 2.628 11.83 4.178 15.669 1.706 4.227 6.746 8.146 11.7 8.146l3.45-.043-1.924-11.104 1.649-2.348 4.763-3.175 3.968-2.382 3.971-.794 8.731-1.589h6.351c2.885 0 2.786.942 5.558 1.589h2.382l1.942 3.801 11.552 2.554 2.221-5.634-.633-3.103-3.175-3.175-7.938-3.176-17.465-.793-11.115 1.587-5.556 1.588-4.764 1.587-5.557 2.382-3.969 2.382-1.548.912-1.863-19.146c-2.124-.978-2.145-3.969-2.145-7.17v-2.382h-1.589c0-18.85-3.589-22.184 2.087-39.194 3.567-10.69 7.555-22.153 10.152-33.51 2.2-9.628 6.573-25.627 9.99-33.673 5.907-13.91-8.526-22.443-8.733-31.753-2.949 2.16-11.829 40.062-13.502 46.831-1.528 6.189-12.312 45.44-12.309 48.487l9.14 66.629z"/><path id="_81662280" class="fil14" d="m171.202 251.511.876 7.935 18.177 3.178c4.109 6.135 7.938 13.596 7.938 23.816l.793 6.351v7.144l-.793 4.764v5.556c1.777 2.802-10.284 59.093-11.864 66.73-3.22 15.571-4.105 19.055-1.714 34.174 1.4 8.857 5.64 26.146 5.64 34.053 0 1.315-1.802 4.46-2.382 5.557l7.144 2.382 2.382-39.693 1.182-.042 14.358-144.839-3.633-3.571-3.66-.631-7.453-4.133-25.5-9.557.891-3.145-2.382 3.97z"/><path id="_218359480" class="fil15" d="M193.23 209.636c2.271 13.277 6.53 17.044 15.284 21.234l14.981 3.558.102.412h-3.969l1.022 11.891-.37.743 23.164 4.038V237.22h-6.351c-3.124 0-5.281-.405-7.147-1.427l63.511 1.427 22.229-2.38 1.587-.796 19.052-5.555 7.145-5.558 3.175-3.969c1.121-.822 1.997-3.017 2.676-6.212l.5-4.903-.794 3.175v2.382c-3.276.875-1.399 2.121-7.608 3.507-3.34.746-5.283 1.257-9.063 1.257h-23.022l-31.755-2.377-2.382-.004-5.545-13.162.783-.334c-2.811-1.134-6.282-20.36-7.643-24.906-2.563-8.557-4.424-16.316-6.941-24.813-2.546-8.594-4.641-16.157-7.151-24.605-1.105-3.722-1.888-10.18-4.578-11.297-3.216-1.339-10.543-.99-11.793-4.085l-31.09-5.667-10.19-3.066c-1.803 3.406-2.931 8.439-2.642 13.957l4.823 91.826z"/><path id="_81760144" class="fil15" d="m445.084 418.221-3.969 4.764-.966 5.524 5.729 4.001 1.587 1.589c3.763 2.52 6.35 7.986 6.35 14.289v3.969c0 2.417-.36 2.903-.793 4.763l5.799 14.193 14.047-3.873 14.29-16.67-9.457 2.611-.069-3.405.794-9.527-.794-9.526c-3.811-7.941-9.133-16.671-20.641-16.671h-.794l-7.144.793-3.969 3.176z"/><path id="_46645680" class="fil15" d="M402.216 438.861c-2.567 5.348.406 15.264 1.725 19.71 2.798 9.44 9.171 15.444 16.848 19.921 8.366 4.878 12.759 4.701 21.066 1.22 3.886-1.628 8.094-4.75 8.786-13.065l-9.474 4.083-3.227-4.083-3.175-3.969-3.176-4.764-3.97-7.938-3.176-11.115-.862-11.112-19.07 10.962-2.295.15z"/><path id="_80736376" class="fil15" d="m114.838 492.844-1.83 11.882c-.227 3.06.639 6.465 1.712 9.669 3.646 10.893 8.254 20.272 18.836 25.48 1.887.928 3.566 2.188 5.891 2.188 3.064 0 11.073-5.509 12.454-8.187 1.697-3.29 4.673-10.765 5.012-14.835l-15.845 3.354-1.621-4.149-2.38-4.762-1.589-6.351-2.382-10.32v-15.084l-1.548-.912-16.71 12.027z"/><path id="_82026464" class="fil15" d="m160.882 469.822-6.351 9.527h3.175c4.712 0 14.068 6.511 15.083 10.32 3.321 2.223 5.558 7.875 5.558 13.495v3.175c0 2.736-.587 3.074-.794 5.556l21.434-9.525 1.588-12.702c0-12.17-12.826-23.815-25.404-23.815-4.594 0-11.595 2.259-14.289 3.969z"/><path id="_81427304" class="fil15" d="M229.205 89.564h33.292l-.795-16.671V60.19l-32.562-.098z"/><path id="_84265520" class="fil15" d="m174.378 519.042-1.588.794 1.795 19.524 20.433-9.205 6.351-4.762.793-.795 3.176-3.969-12.705-.744 1.013-8.757z"/><path id="_64560424" class="fil15" d="m412.536 419.015-.793.795c4.774-.106 8.379-3.454 10.039-6.234l-4.484-12.025c-2.191 1.467-7.938 5.506-7.938 8.733 0 2.96 6.26 7.71 3.176 8.731z"/><path id="_83149272" class="fil15" d="m263.291 252.305-.794-14.289h-7.939v14.289z"/><path id="_82275800" class="fil16" d="M198.194 260.243c10.29 0 15.645 8.98 20.64 9.527 0 7.45 1.036 19.579-3.969 22.228l.798.083-12.868 123.742-1.425.017v6.351l-.941 15.073-1.442.011v9.527l-.793 8.731.863 1.546 199.19-36.475c-1.714-2.466-11.48-70.48-13.186-80.49-1.263-7.407-1.875-13.836-1.878-21.938-.003-7.25-3.055-13.776-3.198-19.824-.061-2.6-1.858-19.935-2.476-21.339-.975-2.212-4.665-15.675-4.665-18.357v-2.382h-10.32L234.707 268.13l-15.078.053c-2.124 0-2.35-1.146-3.176-2.382h-3.97l-.966-3.13-4.953-2.636c-5.037-.705-10.679-4.761-16.791-6.455-4.257-1.179-14.264-3.708-15.395-6.832l-.793.793-.891 3.146 25.5 9.556z"/><path id="_81581432" class="fil16" d="m200.575 638.121 92.882-25.404-2.451-81.278-95.249 21.741z"/><path id="_81984584" class="fil16" d="m302.19 610.335 83.355-23.022.035-77.644-80.216 18.105c-1.433.96-1.395 1.588-3.174 1.588l-2.349-.002 2.349 80.975z"/><path id="_83474688" class="fil16" d="m209.185 465.988 8.081 15.337 179.323-34.878.07-23.462-193.733 35.558z"/><path id="_218365936" class="fil16" d="m207.72 648.441 2.382 39.693 93.629-27.147.046-5.402-.825-33.342-1.557-.793c-1.365 3.771-39.526 12.021-46.044 14.289-6.33 2.203-42.14 12.579-47.631 12.702z"/><path id="_81721904" class="fil16" d="m310.921 619.861.794 38.106 84.138-24.647.012-38.067-4.764-3.971 4.383 5.198z"/><path id="_83148232" class="fil16" d="M140.243 271.358c-.82 3.072-2.382 2.764-2.382 3.969 0 3.676 5.582 14.242 8.732 15.082l-.74.573 11.854 15.305c-3.76 7.107-7.51 15.485-11.594 22.542-2.909 5.023-5.62 23.386-9.84 25.09 0 11.79-10.32 22.61-10.32 33.342l-.048 21.438 3.223 34.926 3.969-2.382v-13.495l-1.422-.008-.959-23.014v-19.847c3.934-1.588 8.165-13.986 9.674-18.906 1.314-4.291 7.425-14.077 9.38-19.993.87-2.637 8.427-17.613 10.1-19.272 2.579-2.556 13.38-12.482 16.89-12.482 4.768 0 18.02 2.481 19.052 6.351l2.382-10.321V304.7c-6.943 0-17.949-.31-22.228-3.175l-5.276-.462-12.433-7.583-.55.9v-3.97l-.568.64-10.534-8.583-3.981-13.491-2.381 2.382z"/><path id="_83775592" class="fil16" d="m214.071 511.896-4.886 6.216-3.847 4.899c14.841 0 34.477-6.02 48.37-8.787 13.493-2.69 33.558-6.351 46.212-10.154 14.255-4.282 31.748-6.517 46.101-10.263 6.362-1.66 17.457-4.219 23.678-4.902 6.939-.759 15.411-4.624 22.99-4.794v-7.938c-4.69 2.25-36.645 8.036-44.401 9.581-14.008 2.792-29.698 5.568-44.184 9.006-7.689 1.824-14.692 3.095-22.365 4.626-3.39.676-7.426 1.906-11.311 2.182-5.127.365-6.333 2.223-10.115 3.381-7.591 2.324-36.35 6.947-46.242 6.947z"/><path id="_81550560" d="M438.733 438.861c2.902 3.34 1.591 7.928 6.351 11.115v1.587l5.556 4.764 1.589-.795.793-7.144v-.794c0-4.918-4.614-9.966-5.558-13.495l-1.587-1.589h-1.588l-5.279-3.655-.277 10.006z" style="fill:#fff"/><path id="_82476352" d="m433.176 388.848-7.938 2.382-2.382 1.587-3.175 1.589-7.938 4.762-5.438 4.138-9.864-22.65-5.34-28.325 10.322 68.272 11.113-1.589c3.084-1.021-3.175-5.77-3.175-8.731 0-3.227 5.746-7.266 7.938-8.733l2.382-1.587 2.382-.795c2.416-2.1 9.915-5.95 14.289-3.175l3.969 4.764c4.02-2.693 6.384-6.686 6.384-13.515l-13.529 1.606z" style="fill:#555"/><path id="_84265712" d="m243.444 251.511 8.732 1.587h36.517l-8.732-.794H254.559v-14.289h25.404l8.731-.794h4.764l-63.511-1.427c1.865 1.022 4.022 1.427 7.147 1.427h6.351v14.29z" style="fill:#675718"/><path id="_81199264" class="fil1" d="M304.57 200.703h-6.351v-1.587h3.175c1.857 0 2.054.237 3.176.793l1.589-.793 4.009-.582c-.981 2.385.989.365-2.422 2.169h-3.176z"/></g></g></svg>